Space-Mono-Bold_QUADRATIC.ufo
<glyph name="exclam" format="1">
  <advance width="612"/>
  <unicode hex="0021"/>
  <outline>
    <contour>
      <point x="372" y="700" type="line"/>
      <point x="372" y="212" type="line"/>
      <point x="240" y="212" type="line"/>
      <point x="240" y="700" type="line"/>
    </contour>
    <contour>
      <point x="401" y="81" type="qcurve"/>
      <point x="401" y="61"/>
      <point x="386" y="26"/>
      <point x="360" y="1"/>
      <point x="325" y="-14"/>
      <point x="306" y="-14" type="qcurve"/>
      <point x="286" y="-14"/>
      <point x="252" y="1"/>
      <point x="226" y="26"/>
      <point x="211" y="61"/>
      <point x="211" y="81" type="qcurve"/>
      <point x="211" y="101"/>
      <point x="226" y="136"/>
      <point x="252" y="161"/>
      <point x="286" y="176"/>
      <point x="306" y="176" type="qcurve"/>
      <point x="325" y="176"/>
      <point x="360" y="161"/>
      <point x="386" y="136"/>
      <point x="401" y="101"/>
    </contour>
  </outline>
</glyph>
<glyph name="ampersand" format="1">
  <advance width="612"/>
  <unicode hex="0026"/>
  <outline>
    <contour>
      <point x="373" y="294" type="line"/>
      <point x="262" y="294" type="line"/>
      <point x="220" y="294"/>
      <point x="168" y="252"/>
      <point x="168" y="210" type="qcurve"/>
      <point x="168" y="204" type="line"/>
      <point x="168" y="162"/>
      <point x="220" y="120"/>
      <point x="262" y="120" type="qcurve"/>
      <point x="373" y="120" type="line"/>
    </contour>
    <contour>
      <point x="499" y="496" type="line"/>
      <point x="499" y="414" type="line"/>
      <point x="591" y="414" type="line"/>
      <point x="591" y="288" type="line"/>
      <point x="499" y="288" type="line"/>
      <point x="499" y="0" type="line"/>
      <point x="249" y="0" type="line"/>
      <point x="199" y="0"/>
      <point x="121" y="28"/>
      <point x="69" y="77"/>
      <point x="42" y="144"/>
      <point x="42" y="183" type="qcurve"/>
      <point x="42" y="195" type="line"/>
      <point x="42" y="255"/>
      <point x="109" y="328"/>
      <point x="160" y="342" type="qcurve"/>
      <point x="160" y="360" type="line"/>
      <point x="109" y="374"/>
      <point x="42" y="446"/>
      <point x="42" y="506" type="qcurve"/>
      <point x="42" y="518" type="line"/>
      <point x="42" y="557"/>
      <point x="69" y="624"/>
      <point x="121" y="672"/>
      <point x="199" y="700"/>
      <point x="249" y="700" type="qcurve"/>
      <point x="358" y="700" type="line"/>
      <point x="358" y="580" type="line"/>
      <point x="262" y="580" type="line"/>
      <point x="220" y="580"/>
      <point x="168" y="541"/>
      <point x="168" y="500" type="qcurve"/>
      <point x="168" y="494" type="line"/>
      <point x="168" y="452"/>
      <point x="220" y="414"/>
      <point x="262" y="414" type="qcurve"/>
      <point x="373" y="414" type="line"/>
      <point x="373" y="496" type="line"/>
    </contour>
  </outline>
</glyph>
<glyph name="quotesingle" format="1">
  <advance width="612"/>
  <unicode hex="0027"/>
  <outline>
    <contour>
      <point x="267" y="533" type="line"/>
      <point x="242" y="544"/>
      <point x="211" y="591"/>
      <point x="211" y="620" type="qcurve"/>
      <point x="211" y="639"/>
      <point x="226" y="674"/>
      <point x="252" y="699"/>
      <point x="286" y="714"/>
      <point x="306" y="714" type="qcurve"/>
      <point x="325" y="714"/>
      <point x="360" y="699"/>
      <point x="385" y="674"/>
      <point x="400" y="639"/>
      <point x="400" y="620" type="qcurve"/>
      <point x="400" y="591"/>
      <point x="369" y="544"/>
      <point x="345" y="533" type="qcurve"/>
      <point x="345" y="408" type="line"/>
      <point x="267" y="408" type="line"/>
    </contour>
  </outline>
</glyph>
<glyph name="period" format="1">
  <advance width="612"/>
  <unicode hex="002E"/>
  <outline>
    <contour>
      <point x="401" y="81" type="qcurve"/>
      <point x="401" y="61"/>
      <point x="386" y="26"/>
      <point x="360" y="1"/>
      <point x="325" y="-14"/>
      <point x="306" y="-14" type="qcurve"/>
      <point x="286" y="-14"/>
      <point x="252" y="1"/>
      <point x="226" y="26"/>
      <point x="211" y="61"/>
      <point x="211" y="81" type="qcurve"/>
      <point x="211" y="101"/>
      <point x="226" y="136"/>
      <point x="252" y="161"/>
      <point x="286" y="176"/>
      <point x="306" y="176" type="qcurve"/>
      <point x="325" y="176"/>
      <point x="360" y="161"/>
      <point x="386" y="136"/>
      <point x="401" y="101"/>
    </contour>
  </outline>
</glyph>
<glyph name="three" format="1">
  <advance width="612"/>
  <unicode hex="0033"/>
  <outline>
    <contour>
      <point x="238" y="300" type="line"/>
      <point x="238" y="508" type="line"/>
      <point x="412" y="556" type="line"/>
      <point x="412" y="574" type="line"/>
      <point x="64" y="574" type="line"/>
      <point x="64" y="700" type="line"/>
      <point x="520" y="700" type="line"/>
      <point x="520" y="480" type="line"/>
      <point x="334" y="426" type="line"/>
      <point x="334" y="408" type="line"/>
      <point x="358" y="408" type="line"/>
      <point x="395" y="408"/>
      <point x="467" y="385"/>
      <point x="522" y="337"/>
      <point x="556" y="266"/>
      <point x="556" y="218" type="qcurve"/>
      <point x="556" y="206" type="line"/>
      <point x="556" y="159"/>
      <point x="525" y="79"/>
      <point x="464" y="20"/>
      <point x="374" y="-14"/>
      <point x="316" y="-14" type="qcurve"/>
      <point x="257" y="-14"/>
      <point x="161" y="24"/>
      <point x="94" y="90"/>
      <point x="58" y="176"/>
      <point x="58" y="224" type="qcurve"/>
      <point x="58" y="266" type="line"/>
      <point x="190" y="266" type="line"/>
      <point x="190" y="230" type="line"/>
      <point x="190" y="182"/>
      <point x="252" y="112"/>
      <point x="314" y="112" type="qcurve"/>
      <point x="367" y="112"/>
      <point x="424" y="166"/>
      <point x="424" y="210" type="qcurve"/>
      <point x="424" y="257"/>
      <point x="363" y="300"/>
      <point x="316" y="300" type="qcurve"/>
    </contour>
  </outline>
</glyph>
<glyph name="four" format="1">
  <advance width="612"/>
  <unicode hex="0034"/>
  <outline>
    <contour>
      <point x="232" y="700" type="line"/>
      <point x="482" y="700" type="line"/>
      <point x="482" y="258" type="line"/>
      <point x="584" y="258" type="line"/>
      <point x="584" y="132" type="line"/>
      <point x="482" y="132" type="line"/>
      <point x="482" y="0" type="line"/>
      <point x="350" y="0" type="line"/>
      <point x="350" y="132" type="line"/>
      <point x="38" y="132" type="line"/>
      <point x="38" y="314" type="line"/>
    </contour>
    <contour>
      <point x="152" y="276" type="line"/>
      <point x="152" y="258" type="line"/>
      <point x="350" y="258" type="line"/>
      <point x="350" y="634" type="line"/>
      <point x="332" y="634" type="line"/>
    </contour>
  </outline>
</glyph>
<glyph name="five" format="1">
  <advance width="612"/>
  <unicode hex="0035"/>
  <outline>
    <contour>
      <point x="66" y="312" type="line"/>
      <point x="66" y="700" type="line"/>
      <point x="534" y="700" type="line"/>
      <point x="534" y="574" type="line"/>
      <point x="198" y="574" type="line"/>
      <point x="198" y="384" type="line"/>
      <point x="216" y="384" type="line"/>
      <point x="230" y="423"/>
      <point x="307" y="480"/>
      <point x="372" y="480" type="qcurve"/>
      <point x="421" y="480"/>
      <point x="499" y="446"/>
      <point x="553" y="386"/>
      <point x="582" y="302"/>
      <point x="582" y="252" type="qcurve"/>
      <point x="582" y="246" type="line"/>
      <point x="582" y="193"/>
      <point x="547" y="99"/>
      <point x="480" y="28"/>
      <point x="382" y="-14"/>
      <point x="318" y="-14" type="qcurve"/>
      <point x="254" y="-14"/>
      <point x="156" y="21"/>
      <point x="89" y="84"/>
      <point x="54" y="171"/>
      <point x="54" y="222" type="qcurve"/>
      <point x="54" y="246" type="line"/>
      <point x="186" y="246" type="line"/>
      <point x="186" y="234" type="line"/>
      <point x="186" y="181"/>
      <point x="251" y="112"/>
      <point x="314" y="112" type="qcurve"/>
      <point x="377" y="112"/>
      <point x="450" y="180"/>
      <point x="450" y="240" type="qcurve"/>
      <point x="450" y="297"/>
      <point x="396" y="354"/>
      <point x="352" y="354" type="qcurve"/>
      <point x="323" y="354"/>
      <point x="287" y="329"/>
      <point x="282" y="312" type="qcurve"/>
    </contour>
  </outline>
</glyph>
<glyph name="colon" format="1">
  <advance width="612"/>
  <unicode hex="003A"/>
  <outline>
    <contour>
      <point x="401" y="81" type="qcurve"/>
      <point x="401" y="61"/>
      <point x="386" y="26"/>
      <point x="360" y="1"/>
      <point x="325" y="-14"/>
      <point x="306" y="-14" type="qcurve"/>
      <point x="286" y="-14"/>
      <point x="252" y="1"/>
      <point x="226" y="26"/>
      <point x="211" y="61"/>
      <point x="211" y="81" type="qcurve"/>
      <point x="211" y="101"/>
      <point x="226" y="136"/>
      <point x="252" y="161"/>
      <point x="286" y="176"/>
      <point x="306" y="176" type="qcurve"/>
      <point x="325" y="176"/>
      <point x="360" y="161"/>
      <point x="386" y="136"/>
      <point x="401" y="101"/>
    </contour>
    <contour>
      <point x="401" y="415" type="qcurve"/>
      <point x="401" y="395"/>
      <point x="386" y="360"/>
      <point x="360" y="335"/>
      <point x="325" y="320"/>
      <point x="306" y="320" type="qcurve"/>
      <point x="286" y="320"/>
      <point x="252" y="335"/>
      <point x="226" y="360"/>
      <point x="211" y="395"/>
      <point x="211" y="415" type="qcurve"/>
      <point x="211" y="435"/>
      <point x="226" y="470"/>
      <point x="252" y="495"/>
      <point x="286" y="510"/>
      <point x="306" y="510" type="qcurve"/>
      <point x="325" y="510"/>
      <point x="360" y="495"/>
      <point x="386" y="470"/>
      <point x="401" y="435"/>
    </contour>
  </outline>
</glyph>
<glyph name="less" format="1">
  <advance width="612"/>
  <unicode hex="003C"/>
  <outline>
    <contour>
      <point x="97" y="246" type="line"/>
      <point x="97" y="454" type="line"/>
      <point x="515" y="570" type="line"/>
      <point x="515" y="450" type="line"/>
      <point x="175" y="359" type="line"/>
      <point x="175" y="341" type="line"/>
      <point x="515" y="250" type="line"/>
      <point x="515" y="130" type="line"/>
    </contour>
  </outline>
</glyph>
<glyph name="equal" format="1">
  <advance width="612"/>
  <unicode hex="003D"/>
  <outline>
    <contour>
      <point x="97" y="494" type="line"/>
      <point x="515" y="494" type="line"/>
      <point x="515" y="380" type="line"/>
      <point x="97" y="380" type="line"/>
    </contour>
    <contour>
      <point x="97" y="320" type="line"/>
      <point x="515" y="320" type="line"/>
      <point x="515" y="206" type="line"/>
      <point x="97" y="206" type="line"/>
    </contour>
  </outline>
</glyph>
<glyph name="question" format="1">
  <advance width="612"/>
  <unicode hex="003F"/>
  <outline>
    <contour>
      <point x="328" y="390" type="line"/>
      <point x="371" y="390"/>
      <point x="420" y="444"/>
      <point x="420" y="488" type="qcurve"/>
      <point x="420" y="530"/>
      <point x="362" y="588"/>
      <point x="312" y="588" type="qcurve"/>
      <point x="285" y="588"/>
      <point x="243" y="569"/>
      <point x="213" y="536"/>
      <point x="198" y="493"/>
      <point x="198" y="470" type="qcurve"/>
      <point x="198" y="428" type="line"/>
      <point x="66" y="428" type="line"/>
      <point x="66" y="482" type="line"/>
      <point x="66" y="527"/>
      <point x="99" y="611"/>
      <point x="162" y="675"/>
      <point x="255" y="714"/>
      <point x="314" y="714" type="qcurve"/>
      <point x="367" y="714"/>
      <point x="455" y="679"/>
      <point x="518" y="617"/>
      <point x="552" y="534"/>
      <point x="552" y="486" type="qcurve"/>
      <point x="552" y="480" type="line"/>
      <point x="552" y="439"/>
      <point x="527" y="365"/>
      <point x="481" y="309"/>
      <point x="413" y="275"/>
      <point x="371" y="275" type="qcurve"/>
      <point x="357" y="275"/>
      <point x="343" y="259"/>
      <point x="343" y="245" type="qcurve"/>
      <point x="343" y="212" type="line"/>
      <point x="217" y="212" type="line"/>
      <point x="217" y="298" type="line"/>
      <point x="217" y="337"/>
      <point x="270" y="390"/>
      <point x="309" y="390" type="qcurve"/>
    </contour>
    <contour>
      <point x="376" y="81" type="qcurve"/>
      <point x="376" y="61"/>
      <point x="361" y="26"/>
      <point x="335" y="1"/>
      <point x="300" y="-14"/>
      <point x="281" y="-14" type="qcurve"/>
      <point x="261" y="-14"/>
      <point x="227" y="1"/>
      <point x="201" y="26"/>
      <point x="186" y="61"/>
      <point x="186" y="81" type="qcurve"/>
      <point x="186" y="101"/>
      <point x="201" y="136"/>
      <point x="227" y="161"/>
      <point x="261" y="176"/>
      <point x="281" y="176" type="qcurve"/>
      <point x="300" y="176"/>
      <point x="335" y="161"/>
      <point x="361" y="136"/>
      <point x="376" y="101"/>
    </contour>
  </outline>
</glyph>
<glyph name="at" format="1">
  <advance width="612"/>
  <unicode hex="0040"/>
  <outline>
    <contour>
      <point x="60" y="510" type="line"/>
      <point x="60" y="630" type="line"/>
      <point x="374" y="630" type="line"/>
      <point x="472" y="630"/>
      <point x="588" y="526"/>
      <point x="588" y="422" type="qcurve"/>
      <point x="588" y="82" type="line"/>
      <point x="588" y="40"/>
      <point x="535" y="-14"/>
      <point x="493" y="-14" type="qcurve"/>
      <point x="370" y="-14" type="line"/>
      <point x="332" y="-14"/>
      <point x="297" y="19"/>
      <point x="294" y="42" type="qcurve"/>
      <point x="276" y="42" type="line"/>
      <point x="267" y="19"/>
      <point x="220" y="-14"/>
      <point x="176" y="-14" type="qcurve"/>
      <point x="141" y="-14"/>
      <point x="82" y="13"/>
      <point x="39" y="68"/>
      <point x="14" y="152"/>
      <point x="14" y="209" type="qcurve"/>
      <point x="14" y="215" type="line"/>
      <point x="14" y="272"/>
      <point x="41" y="356"/>
      <point x="86" y="411"/>
      <point x="147" y="438"/>
      <point x="182" y="438" type="qcurve"/>
      <point x="220" y="438"/>
      <point x="261" y="409"/>
      <point x="270" y="388" type="qcurve"/>
      <point x="288" y="388" type="line"/>
      <point x="288" y="424" type="line"/>
      <point x="408" y="424" type="line"/>
      <point x="408" y="128" type="line"/>
      <point x="408" y="100"/>
      <point x="435" y="100" type="qcurve"/>
      <point x="441" y="100" type="line"/>
      <point x="468" y="100"/>
      <point x="468" y="128" type="qcurve"/>
      <point x="468" y="390" type="line"/>
      <point x="468" y="510"/>
      <point x="348" y="510" type="qcurve"/>
    </contour>
    <contour>
      <point x="212" y="100" type="qcurve"/>
      <point x="253" y="100"/>
      <point x="288" y="161"/>
      <point x="288" y="209" type="qcurve"/>
      <point x="288" y="215" type="line"/>
      <point x="288" y="263"/>
      <point x="253" y="324"/>
      <point x="212" y="324" type="qcurve"/>
      <point x="174" y="324"/>
      <point x="134" y="263"/>
      <point x="134" y="215" type="qcurve"/>
      <point x="134" y="209" type="line"/>
      <point x="134" y="161"/>
      <point x="174" y="100"/>
    </contour>
  </outline>
</glyph>
<glyph name="C" format="1">
  <advance width="612"/>
  <unicode hex="0043"/>
  <outline>
    <contour>
      <point x="308" y="106" type="qcurve"/>
      <point x="346" y="106"/>
      <point x="395" y="129"/>
      <point x="422" y="168"/>
      <point x="432" y="219"/>
      <point x="432" y="246" type="qcurve"/>
      <point x="432" y="264" type="line"/>
      <point x="564" y="264" type="line"/>
      <point x="564" y="246" type="line"/>
      <point x="564" y="121"/>
      <point x="433" y="-14"/>
      <point x="308" y="-14" type="qcurve"/>
      <point x="188" y="-14"/>
      <point x="48" y="132"/>
      <point x="48" y="272" type="qcurve"/>
      <point x="48" y="428" type="line"/>
      <point x="48" y="495"/>
      <point x="84" y="602"/>
      <point x="152" y="675"/>
      <point x="248" y="714"/>
      <point x="308" y="714" type="qcurve"/>
      <point x="370" y="714"/>
      <point x="466" y="678"/>
      <point x="531" y="610"/>
      <point x="564" y="514"/>
      <point x="564" y="454" type="qcurve"/>
      <point x="564" y="436" type="line"/>
      <point x="432" y="436" type="line"/>
      <point x="432" y="454" type="line"/>
      <point x="432" y="479"/>
      <point x="420" y="529"/>
      <point x="392" y="569"/>
      <point x="344" y="594"/>
      <point x="308" y="594" type="qcurve"/>
      <point x="275" y="594"/>
      <point x="227" y="569"/>
      <point x="195" y="526"/>
      <point x="180" y="469"/>
      <point x="180" y="438" type="qcurve"/>
      <point x="180" y="262" type="line"/>
      <point x="180" y="228"/>
      <point x="194" y="171"/>
      <point x="224" y="129"/>
      <point x="273" y="106"/>
    </contour>
  </outline>
</glyph>
<glyph name="E" format="1">
  <advance width="612"/>
  <unicode hex="0045"/>
  <outline>
    <contour>
      <point x="82" y="700" type="line"/>
      <point x="524" y="700" type="line"/>
      <point x="524" y="574" type="line"/>
      <point x="214" y="574" type="line"/>
      <point x="214" y="414" type="line"/>
      <point x="512" y="414" type="line"/>
      <point x="512" y="288" type="line"/>
      <point x="214" y="288" type="line"/>
      <point x="214" y="126" type="line"/>
      <point x="536" y="126" type="line"/>
      <point x="536" y="0" type="line"/>
      <point x="82" y="0" type="line"/>
    </contour>
  </outline>
</glyph>
<glyph name="G" format="1">
  <advance width="612"/>
  <unicode hex="0047"/>
  <outline>
    <contour>
      <point x="260" y="354" type="line"/>
      <point x="560" y="354" type="line"/>
      <point x="560" y="0" type="line"/>
      <point x="440" y="0" type="line"/>
      <point x="440" y="78" type="line"/>
      <point x="422" y="78" type="line"/>
      <point x="410" y="39"/>
      <point x="342" y="-14"/>
      <point x="274" y="-14" type="qcurve"/>
      <point x="226" y="-14"/>
      <point x="142" y="22"/>
      <point x="80" y="93"/>
      <point x="44" y="198"/>
      <point x="44" y="268" type="qcurve"/>
      <point x="44" y="432" type="line"/>
      <point x="44" y="500"/>
      <point x="83" y="605"/>
      <point x="152" y="677"/>
      <point x="248" y="714"/>
      <point x="306" y="714" type="qcurve"/>
      <point x="366" y="714"/>
      <point x="460" y="675"/>
      <point x="526" y="606"/>
      <point x="560" y="513"/>
      <point x="560" y="460" type="qcurve"/>
      <point x="560" y="448" type="line"/>
      <point x="428" y="448" type="line"/>
      <point x="428" y="460" type="line"/>
      <point x="428" y="523"/>
      <point x="363" y="588"/>
      <point x="304" y="588" type="qcurve"/>
      <point x="248" y="588"/>
      <point x="176" y="513"/>
      <point x="176" y="422" type="qcurve"/>
      <point x="176" y="274" type="line"/>
      <point x="176" y="112"/>
      <point x="308" y="112" type="qcurve"/>
      <point x="367" y="112"/>
      <point x="428" y="175"/>
      <point x="428" y="228" type="qcurve"/>
      <point x="260" y="228" type="line"/>
    </contour>
  </outline>
</glyph>
<glyph name="L" format="1">
  <advance width="612"/>
  <unicode hex="004C"/>
  <outline>
    <contour>
      <point x="82" y="700" type="line"/>
      <point x="214" y="700" type="line"/>
      <point x="214" y="126" type="line"/>
      <point x="532" y="126" type="line"/>
      <point x="532" y="0" type="line"/>
      <point x="82" y="0" type="line"/>
    </contour>
  </outline>
</glyph>
<glyph name="M" format="1">
  <advance width="612"/>
  <unicode hex="004D"/>
  <outline>
    <contour>
      <point x="22" y="700" type="line"/>
      <point x="254" y="700" type="line"/>
      <point x="294" y="174" type="line"/>
      <point x="294" y="72" type="line"/>
      <point x="318" y="72" type="line"/>
      <point x="318" y="174" type="line"/>
      <point x="358" y="700" type="line"/>
      <point x="590" y="700" type="line"/>
      <point x="590" y="0" type="line"/>
      <point x="470" y="0" type="line"/>
      <point x="470" y="468" type="line"/>
      <point x="482" y="628" type="line"/>
      <point x="458" y="628" type="line"/>
      <point x="406" y="0" type="line"/>
      <point x="208" y="0" type="line"/>
      <point x="154" y="628" type="line"/>
      <point x="130" y="628" type="line"/>
      <point x="142" y="468" type="line"/>
      <point x="142" y="0" type="line"/>
      <point x="22" y="0" type="line"/>
    </contour>
  </outline>
</glyph>
<glyph name="P" format="1">
  <advance width="612"/>
  <unicode hex="0050"/>
  <outline>
    <contour>
      <point x="204" y="264" type="line"/>
      <point x="204" y="0" type="line"/>
      <point x="72" y="0" type="line"/>
      <point x="72" y="700" type="line"/>
      <point x="346" y="700" type="line"/>
      <point x="400" y="700"/>
      <point x="480" y="665"/>
      <point x="533" y="608"/>
      <point x="560" y="535"/>
      <point x="560" y="497" type="qcurve"/>
      <point x="560" y="473" type="line"/>
      <point x="560" y="434"/>
      <point x="533" y="359"/>
      <point x="480" y="300"/>
      <point x="400" y="264"/>
      <point x="346" y="264" type="qcurve"/>
    </contour>
    <contour>
      <point x="204" y="390" type="line"/>
      <point x="333" y="390" type="line"/>
      <point x="377" y="390"/>
      <point x="428" y="438"/>
      <point x="428" y="476" type="qcurve"/>
      <point x="428" y="488" type="line"/>
      <point x="428" y="526"/>
      <point x="377" y="574"/>
      <point x="333" y="574" type="qcurve"/>
      <point x="204" y="574" type="line"/>
    </contour>
  </outline>
</glyph>
<glyph name="R" format="1">
  <advance width="612"/>
  <unicode hex="0052"/>
  <outline>
    <contour>
      <point x="543" y="0" type="line"/>
      <point x="411" y="0" type="line"/>
      <point x="411" y="210" type="line"/>
      <point x="411" y="234"/>
      <point x="386" y="264"/>
      <point x="357" y="264" type="qcurve"/>
      <point x="205" y="264" type="line"/>
      <point x="205" y="0" type="line"/>
      <point x="73" y="0" type="line"/>
      <point x="73" y="700" type="line"/>
      <point x="341" y="700" type="line"/>
      <point x="395" y="700"/>
      <point x="477" y="670"/>
      <point x="532" y="617"/>
      <point x="561" y="547"/>
      <point x="561" y="507" type="qcurve"/>
      <point x="561" y="483" type="line"/>
      <point x="561" y="440"/>
      <point x="515" y="365"/>
      <point x="467" y="345" type="qcurve"/>
      <point x="467" y="327" type="line"/>
      <point x="502" y="323"/>
      <point x="543" y="277"/>
      <point x="543" y="242" type="qcurve"/>
    </contour>
    <contour>
      <point x="205" y="390" type="line"/>
      <point x="331" y="390" type="line"/>
      <point x="379" y="390"/>
      <point x="429" y="435"/>
      <point x="429" y="476" type="qcurve"/>
      <point x="429" y="488" type="line"/>
      <point x="429" y="523"/>
      <point x="379" y="574"/>
      <point x="331" y="574" type="qcurve"/>
      <point x="205" y="574" type="line"/>
    </contour>
  </outline>
</glyph>
<glyph name="U" format="1">
  <advance width="612"/>
  <unicode hex="0055"/>
  <outline>
    <contour>
      <point x="558" y="700" type="line"/>
      <point x="558" y="242" type="line"/>
      <point x="558" y="122"/>
      <point x="431" y="-14"/>
      <point x="306" y="-14" type="qcurve"/>
      <point x="181" y="-14"/>
      <point x="54" y="122"/>
      <point x="54" y="242" type="qcurve"/>
      <point x="54" y="700" type="line"/>
      <point x="186" y="700" type="line"/>
      <point x="186" y="242" type="line"/>
      <point x="186" y="180"/>
      <point x="244" y="110"/>
      <point x="306" y="110" type="qcurve"/>
      <point x="368" y="110"/>
      <point x="426" y="180"/>
      <point x="426" y="242" type="qcurve"/>
      <point x="426" y="700" type="line"/>
    </contour>
  </outline>
</glyph>
<glyph name="a" format="1">
  <advance width="612"/>
  <unicode hex="0061"/>
  <outline>
    <contour>
      <point x="399" y="72" type="line"/>
      <point x="379" y="25"/>
      <point x="307" y="-14"/>
      <point x="259" y="-14" type="qcurve"/>
      <point x="214" y="-14"/>
      <point x="135" y="20"/>
      <point x="75" y="86"/>
      <point x="40" y="180"/>
      <point x="40" y="240" type="qcurve"/>
      <point x="40" y="256" type="line"/>
      <point x="40" y="315"/>
      <point x="74" y="409"/>
      <point x="132" y="475"/>
      <point x="209" y="510"/>
      <point x="253" y="510" type="qcurve"/>
      <point x="306" y="510"/>
      <point x="371" y="474"/>
      <point x="390" y="436" type="qcurve"/>
      <point x="408" y="436" type="line"/>
      <point x="408" y="496" type="line"/>
      <point x="534" y="496" type="line"/>
      <point x="534" y="150" type="line"/>
      <point x="534" y="120"/>
      <point x="561" y="120" type="qcurve"/>
      <point x="580" y="120" type="line"/>
      <point x="580" y="0" type="line"/>
      <point x="494" y="0" type="line"/>
      <point x="460" y="0"/>
      <point x="417" y="40"/>
      <point x="417" y="72" type="qcurve"/>
    </contour>
    <contour>
      <point x="287" y="106" type="qcurve"/>
      <point x="342" y="106"/>
      <point x="408" y="179"/>
      <point x="408" y="242" type="qcurve"/>
      <point x="408" y="254" type="line"/>
      <point x="408" y="317"/>
      <point x="342" y="390"/>
      <point x="287" y="390" type="qcurve"/>
      <point x="232" y="390"/>
      <point x="166" y="317"/>
      <point x="166" y="254" type="qcurve"/>
      <point x="166" y="242" type="line"/>
      <point x="166" y="179"/>
      <point x="232" y="106"/>
    </contour>
  </outline>
</glyph>
<glyph name="d" format="1">
  <advance width="612"/>
  <unicode hex="0064"/>
  <outline>
    <contour>
      <point x="434" y="72" type="line"/>
      <point x="416" y="72" type="line"/>
      <point x="408" y="55"/>
      <point x="385" y="24"/>
      <point x="348" y="0"/>
      <point x="297" y="-14"/>
      <point x="261" y="-14" type="qcurve"/>
      <point x="215" y="-14"/>
      <point x="136" y="19"/>
      <point x="77" y="84"/>
      <point x="44" y="178"/>
      <point x="44" y="239" type="qcurve"/>
      <point x="44" y="257" type="line"/>
      <point x="44" y="317"/>
      <point x="79" y="411"/>
      <point x="140" y="476"/>
      <point x="221" y="510"/>
      <point x="266" y="510" type="qcurve"/>
      <point x="326" y="510"/>
      <point x="396" y="465"/>
      <point x="416" y="424" type="qcurve"/>
      <point x="434" y="424" type="line"/>
      <point x="434" y="700" type="line"/>
      <point x="560" y="700" type="line"/>
      <point x="560" y="0" type="line"/>
      <point x="434" y="0" type="line"/>
    </contour>
    <contour>
      <point x="302" y="106" type="qcurve"/>
      <point x="361" y="106"/>
      <point x="434" y="181"/>
      <point x="434" y="242" type="qcurve"/>
      <point x="434" y="254" type="line"/>
      <point x="434" y="315"/>
      <point x="361" y="390"/>
      <point x="302" y="390" type="qcurve"/>
      <point x="243" y="390"/>
      <point x="170" y="317"/>
      <point x="170" y="254" type="qcurve"/>
      <point x="170" y="242" type="line"/>
      <point x="170" y="179"/>
      <point x="243" y="106"/>
    </contour>
  </outline>
</glyph>
<glyph name="e" format="1">
  <advance width="612"/>
  <unicode hex="0065"/>
  <outline>
    <contour>
      <point x="189" y="207" type="line"/>
      <point x="190" y="185"/>
      <point x="209" y="148"/>
      <point x="242" y="121"/>
      <point x="285" y="106"/>
      <point x="309" y="106" type="qcurve"/>
      <point x="356" y="106"/>
      <point x="406" y="139"/>
      <point x="417" y="162" type="qcurve"/>
      <point x="525" y="102" type="line"/>
      <point x="516" y="83"/>
      <point x="484" y="42"/>
      <point x="433" y="8"/>
      <point x="360" y="-14"/>
      <point x="311" y="-14" type="qcurve"/>
      <point x="255" y="-14"/>
      <point x="163" y="22"/>
      <point x="96" y="90"/>
      <point x="59" y="188"/>
      <point x="59" y="250" type="qcurve"/>
      <point x="59" y="256" type="line"/>
      <point x="59" y="313"/>
      <point x="98" y="407"/>
      <point x="166" y="473"/>
      <point x="257" y="510"/>
      <point x="309" y="510" type="qcurve"/>
      <point x="373" y="510"/>
      <point x="465" y="465"/>
      <point x="525" y="396"/>
      <point x="553" y="313"/>
      <point x="553" y="274" type="qcurve"/>
      <point x="553" y="207" type="line"/>
    </contour>
    <contour>
      <point x="308" y="396" type="qcurve"/>
      <point x="260" y="396"/>
      <point x="200" y="347"/>
      <point x="191" y="315" type="qcurve"/>
      <point x="425" y="315" type="line"/>
      <point x="419" y="350"/>
      <point x="356" y="396"/>
    </contour>
  </outline>
</glyph>
<glyph name="f" format="1">
  <advance width="612"/>
  <unicode hex="0066"/>
  <outline>
    <contour>
      <point x="74" y="496" type="line"/>
      <point x="215" y="496" type="line"/>
      <point x="215" y="598" type="line"/>
      <point x="215" y="641"/>
      <point x="273" y="700"/>
      <point x="316" y="700" type="qcurve"/>
      <point x="518" y="700" type="line"/>
      <point x="518" y="580" type="line"/>
      <point x="368" y="580" type="line"/>
      <point x="341" y="580"/>
      <point x="341" y="550" type="qcurve"/>
      <point x="341" y="496" type="line"/>
      <point x="536" y="496" type="line"/>
      <point x="536" y="376" type="line"/>
      <point x="341" y="376" type="line"/>
      <point x="341" y="0" type="line"/>
      <point x="215" y="0" type="line"/>
      <point x="215" y="376" type="line"/>
      <point x="74" y="376" type="line"/>
    </contour>
  </outline>
</glyph>
<glyph name="g" format="1">
  <advance width="612"/>
  <unicode hex="0067"/>
  <outline>
    <contour>
      <point x="432" y="72" type="line"/>
      <point x="414" y="72" type="line"/>
      <point x="406" y="55"/>
      <point x="383" y="24"/>
      <point x="346" y="0"/>
      <point x="295" y="-14"/>
      <point x="259" y="-14" type="qcurve"/>
      <point x="213" y="-14"/>
      <point x="134" y="19"/>
      <point x="75" y="84"/>
      <point x="42" y="178"/>
      <point x="42" y="239" type="qcurve"/>
      <point x="42" y="257" type="line"/>
      <point x="42" y="317"/>
      <point x="77" y="411"/>
      <point x="138" y="476"/>
      <point x="219" y="510"/>
      <point x="264" y="510" type="qcurve"/>
      <point x="324" y="510"/>
      <point x="394" y="465"/>
      <point x="414" y="424" type="qcurve"/>
      <point x="432" y="424" type="line"/>
      <point x="432" y="496" type="line"/>
      <point x="558" y="496" type="line"/>
      <point x="558" y="-122" type="line"/>
      <point x="558" y="-156"/>
      <point x="515" y="-200"/>
      <point x="481" y="-200" type="qcurve"/>
      <point x="147" y="-200" type="line"/>
      <point x="147" y="-80" type="line"/>
      <point x="405" y="-80" type="line"/>
      <point x="432" y="-80"/>
      <point x="432" y="-50" type="qcurve"/>
    </contour>
    <contour>
      <point x="300" y="106" type="qcurve"/>
      <point x="359" y="106"/>
      <point x="432" y="181"/>
      <point x="432" y="242" type="qcurve"/>
      <point x="432" y="254" type="line"/>
      <point x="432" y="315"/>
      <point x="359" y="390"/>
      <point x="300" y="390" type="qcurve"/>
      <point x="241" y="390"/>
      <point x="168" y="317"/>
      <point x="168" y="254" type="qcurve"/>
      <point x="168" y="242" type="line"/>
      <point x="168" y="179"/>
      <point x="241" y="106"/>
    </contour>
  </outline>
</glyph>
<glyph name="h" format="1">
  <advance width="612"/>
  <unicode hex="0068"/>
  <outline>
    <contour>
      <point x="206" y="0" type="line"/>
      <point x="80" y="0" type="line"/>
      <point x="80" y="700" type="line"/>
      <point x="206" y="700" type="line"/>
      <point x="206" y="416" type="line"/>
      <point x="224" y="416" type="line"/>
      <point x="243" y="461"/>
      <point x="317" y="510"/>
      <point x="371" y="510" type="qcurve"/>
      <point x="408" y="510"/>
      <point x="470" y="486"/>
      <point x="516" y="438"/>
      <point x="542" y="363"/>
      <point x="542" y="312" type="qcurve"/>
      <point x="542" y="0" type="line"/>
      <point x="416" y="0" type="line"/>
      <point x="416" y="282" type="line"/>
      <point x="416" y="335"/>
      <point x="365" y="396"/>
      <point x="317" y="396" type="qcurve"/>
      <point x="261" y="396"/>
      <point x="206" y="321"/>
      <point x="206" y="258" type="qcurve"/>
    </contour>
  </outline>
</glyph>
<glyph name="i" format="1">
  <advance width="612"/>
  <unicode hex="0069"/>
  <outline>
    <contour>
      <point x="87" y="120" type="line"/>
      <point x="255" y="120" type="line"/>
      <point x="255" y="376" type="line"/>
      <point x="99" y="376" type="line"/>
      <point x="99" y="496" type="line"/>
      <point x="381" y="496" type="line"/>
      <point x="381" y="120" type="line"/>
      <point x="525" y="120" type="line"/>
      <point x="525" y="0" type="line"/>
      <point x="87" y="0" type="line"/>
    </contour>
    <contour>
      <point x="412" y="643" type="qcurve"/>
      <point x="412" y="623"/>
      <point x="397" y="588"/>
      <point x="371" y="563"/>
      <point x="336" y="548"/>
      <point x="317" y="548" type="qcurve"/>
      <point x="297" y="548"/>
      <point x="263" y="563"/>
      <point x="237" y="588"/>
      <point x="222" y="623"/>
      <point x="222" y="643" type="qcurve"/>
      <point x="222" y="663"/>
      <point x="237" y="698"/>
      <point x="263" y="723"/>
      <point x="297" y="738"/>
      <point x="317" y="738" type="qcurve"/>
      <point x="336" y="738"/>
      <point x="371" y="723"/>
      <point x="397" y="698"/>
      <point x="412" y="663"/>
    </contour>
  </outline>
</glyph>
<glyph name="m" format="1">
  <advance width="612"/>
  <unicode hex="006D"/>
  <outline>
    <contour>
      <point x="576" y="0" type="line"/>
      <point x="450" y="0" type="line"/>
      <point x="450" y="348" type="line"/>
      <point x="450" y="369"/>
      <point x="429" y="390"/>
      <point x="412" y="390" type="qcurve"/>
      <point x="392" y="390"/>
      <point x="369" y="366"/>
      <point x="369" y="342" type="qcurve"/>
      <point x="369" y="0" type="line"/>
      <point x="243" y="0" type="line"/>
      <point x="243" y="348" type="line"/>
      <point x="243" y="369"/>
      <point x="220" y="390"/>
      <point x="204" y="390" type="qcurve"/>
      <point x="186" y="390"/>
      <point x="162" y="366"/>
      <point x="162" y="342" type="qcurve"/>
      <point x="162" y="0" type="line"/>
      <point x="36" y="0" type="line"/>
      <point x="36" y="496" type="line"/>
      <point x="162" y="496" type="line"/>
      <point x="162" y="448" type="line"/>
      <point x="180" y="448" type="line"/>
      <point x="186" y="475"/>
      <point x="229" y="510"/>
      <point x="264" y="510" type="qcurve"/>
      <point x="297" y="510"/>
      <point x="343" y="475"/>
      <point x="351" y="448" type="qcurve"/>
      <point x="369" y="448" type="line"/>
      <point x="377" y="475"/>
      <point x="428" y="510"/>
      <point x="466" y="510" type="qcurve"/>
      <point x="516" y="510"/>
      <point x="576" y="443"/>
      <point x="576" y="384" type="qcurve"/>
    </contour>
  </outline>
</glyph>
<glyph name="n" format="1">
  <advance width="612"/>
  <unicode hex="006E"/>
  <outline>
    <contour>
      <point x="204" y="0" type="line"/>
      <point x="78" y="0" type="line"/>
      <point x="78" y="496" type="line"/>
      <point x="204" y="496" type="line"/>
      <point x="204" y="422" type="line"/>
      <point x="222" y="422" type="line"/>
      <point x="239" y="464"/>
      <point x="315" y="510"/>
      <point x="366" y="510" type="qcurve"/>
      <point x="402" y="510"/>
      <point x="465" y="487"/>
      <point x="513" y="439"/>
      <point x="540" y="365"/>
      <point x="540" y="314" type="qcurve"/>
      <point x="540" y="0" type="line"/>
      <point x="414" y="0" type="line"/>
      <point x="414" y="282" type="line"/>
      <point x="414" y="335"/>
      <point x="363" y="396"/>
      <point x="315" y="396" type="qcurve"/>
      <point x="259" y="396"/>
      <point x="204" y="321"/>
      <point x="204" y="258" type="qcurve"/>
    </contour>
  </outline>
</glyph>
<glyph name="p" format="1">
  <advance width="612"/>
  <unicode hex="0070"/>
  <outline>
    <contour>
      <point x="178" y="-200" type="line"/>
      <point x="52" y="-200" type="line"/>
      <point x="52" y="496" type="line"/>
      <point x="178" y="496" type="line"/>
      <point x="178" y="424" type="line"/>
      <point x="196" y="424" type="line"/>
      <point x="216" y="465"/>
      <point x="292" y="510"/>
      <point x="351" y="510" type="qcurve"/>
      <point x="395" y="510"/>
      <point x="474" y="476"/>
      <point x="533" y="411"/>
      <point x="568" y="317"/>
      <point x="568" y="257" type="qcurve"/>
      <point x="568" y="239" type="line"/>
      <point x="568" y="178"/>
      <point x="534" y="84"/>
      <point x="476" y="19"/>
      <point x="397" y="-14"/>
      <point x="351" y="-14" type="qcurve"/>
      <point x="317" y="-14"/>
      <point x="267" y="0"/>
      <point x="230" y="24"/>
      <point x="205" y="55"/>
      <point x="196" y="72" type="qcurve"/>
      <point x="178" y="72" type="line"/>
    </contour>
    <contour>
      <point x="310" y="106" type="qcurve"/>
      <point x="369" y="106"/>
      <point x="442" y="179"/>
      <point x="442" y="242" type="qcurve"/>
      <point x="442" y="254" type="line"/>
      <point x="442" y="317"/>
      <point x="369" y="390"/>
      <point x="310" y="390" type="qcurve"/>
      <point x="251" y="390"/>
      <point x="178" y="315"/>
      <point x="178" y="254" type="qcurve"/>
      <point x="178" y="242" type="line"/>
      <point x="178" y="181"/>
      <point x="251" y="106"/>
    </contour>
  </outline>
</glyph>
<glyph name="s" format="1">
  <advance width="612"/>
  <unicode hex="0073"/>
  <outline>
    <contour>
      <point x="236" y="356" type="qcurve"/>
      <point x="236" y="332"/>
      <point x="286" y="311"/>
      <point x="352" y="304" type="qcurve"/>
      <point x="428" y="296"/>
      <point x="524" y="221"/>
      <point x="524" y="154" type="qcurve"/>
      <point x="524" y="148" type="line"/>
      <point x="524" y="74"/>
      <point x="416" y="-14"/>
      <point x="318" y="-14" type="qcurve"/>
      <point x="260" y="-14"/>
      <point x="178" y="16"/>
      <point x="124" y="61"/>
      <point x="95" y="116"/>
      <point x="90" y="142" type="qcurve"/>
      <point x="206" y="180" type="line"/>
      <point x="214" y="148"/>
      <point x="265" y="100"/>
      <point x="318" y="100" type="qcurve"/>
      <point x="365" y="100"/>
      <point x="400" y="129"/>
      <point x="400" y="146" type="qcurve"/>
      <point x="400" y="156"/>
      <point x="391" y="173"/>
      <point x="367" y="188"/>
      <point x="326" y="198"/>
      <point x="295" y="201" type="qcurve"/>
      <point x="211" y="208"/>
      <point x="112" y="281"/>
      <point x="112" y="352" type="qcurve"/>
      <point x="112" y="358" type="line"/>
      <point x="112" y="395"/>
      <point x="144" y="451"/>
      <point x="196" y="490"/>
      <point x="264" y="510"/>
      <point x="300" y="510" type="qcurve"/>
      <point x="347" y="510"/>
      <point x="416" y="487"/>
      <point x="464" y="450"/>
      <point x="494" y="405"/>
      <point x="502" y="384" type="qcurve"/>
      <point x="388" y="338" type="line"/>
      <point x="379" y="365"/>
      <point x="335" y="396"/>
      <point x="300" y="396" type="qcurve"/>
      <point x="268" y="396"/>
      <point x="236" y="373"/>
    </contour>
  </outline>
</glyph>
<glyph name="u" format="1">
  <advance width="612"/>
  <unicode hex="0075"/>
  <outline>
    <contour>
      <point x="414" y="496" type="line"/>
      <point x="540" y="496" type="line"/>
      <point x="540" y="0" type="line"/>
      <point x="414" y="0" type="line"/>
      <point x="414" y="72" type="line"/>
      <point x="396" y="72" type="line"/>
      <point x="363" y="-14"/>
      <point x="254" y="-14" type="qcurve"/>
      <point x="217" y="-14"/>
      <point x="153" y="10"/>
      <point x="105" y="60"/>
      <point x="78" y="135"/>
      <point x="78" y="186" type="qcurve"/>
      <point x="78" y="496" type="line"/>
      <point x="204" y="496" type="line"/>
      <point x="204" y="212" type="line"/>
      <point x="204" y="159"/>
      <point x="254" y="100"/>
      <point x="304" y="100" type="qcurve"/>
      <point x="361" y="100"/>
      <point x="414" y="173"/>
      <point x="414" y="236" type="qcurve"/>
    </contour>
  </outline>
</glyph>
<glyph name="v" format="1">
  <advance width="612"/>
  <unicode hex="0076"/>
  <outline>
    <contour>
      <point x="43" y="496" type="line"/>
      <point x="179" y="496" type="line"/>
      <point x="296" y="60" type="line"/>
      <point x="314" y="60" type="line"/>
      <point x="431" y="496" type="line"/>
      <point x="567" y="496" type="line"/>
      <point x="425" y="0" type="line"/>
      <point x="185" y="0" type="line"/>
    </contour>
  </outline>
</glyph>
<glyph name="y" format="1">
  <advance width="612"/>
  <unicode hex="0079"/>
  <outline>
    <contour>
      <point x="414" y="496" type="line"/>
      <point x="540" y="496" type="line"/>
      <point x="540" y="-122" type="line"/>
      <point x="540" y="-156"/>
      <point x="497" y="-200"/>
      <point x="463" y="-200" type="qcurve"/>
      <point x="168" y="-200" type="line"/>
      <point x="168" y="-80" type="line"/>
      <point x="387" y="-80" type="line"/>
      <point x="414" y="-80"/>
      <point x="414" y="-50" type="qcurve"/>
      <point x="414" y="72" type="line"/>
      <point x="396" y="72" type="line"/>
      <point x="363" y="-14"/>
      <point x="254" y="-14" type="qcurve"/>
      <point x="217" y="-14"/>
      <point x="153" y="10"/>
      <point x="105" y="60"/>
      <point x="78" y="135"/>
      <point x="78" y="186" type="qcurve"/>
      <point x="78" y="496" type="line"/>
      <point x="204" y="496" type="line"/>
      <point x="204" y="212" type="line"/>
      <point x="204" y="159"/>
      <point x="254" y="100"/>
      <point x="304" y="100" type="qcurve"/>
      <point x="361" y="100"/>
      <point x="414" y="173"/>
      <point x="414" y="236" type="qcurve"/>
    </contour>
  </outline>
</glyph>
<glyph name="braceright" format="1">
  <advance width="612"/>
  <unicode hex="007D"/>
  <outline>
    <contour>
      <point x="356" y="451" type="line"/>
      <point x="356" y="422"/>
      <point x="383" y="422" type="qcurve"/>
      <point x="446" y="422" type="line"/>
      <point x="446" y="278" type="line"/>
      <point x="383" y="278" type="line"/>
      <point x="356" y="278"/>
      <point x="356" y="249" type="qcurve"/>
      <point x="356" y="-54" type="line"/>
      <point x="356" y="-99"/>
      <point x="299" y="-156"/>
      <point x="254" y="-156" type="qcurve"/>
      <point x="122" y="-156" type="line"/>
      <point x="122" y="-36" type="line"/>
      <point x="203" y="-36" type="line"/>
      <point x="230" y="-36"/>
      <point x="230" y="-6" type="qcurve"/>
      <point x="230" y="263" type="line"/>
      <point x="230" y="297"/>
      <point x="273" y="341"/>
      <point x="308" y="341" type="qcurve"/>
      <point x="314" y="341" type="line"/>
      <point x="314" y="359" type="line"/>
      <point x="308" y="359" type="line"/>
      <point x="273" y="359"/>
      <point x="230" y="403"/>
      <point x="230" y="437" type="qcurve"/>
      <point x="230" y="706" type="line"/>
      <point x="230" y="736"/>
      <point x="203" y="736" type="qcurve"/>
      <point x="122" y="736" type="line"/>
      <point x="122" y="856" type="line"/>
      <point x="254" y="856" type="line"/>
      <point x="299" y="856"/>
      <point x="356" y="799"/>
      <point x="356" y="754" type="qcurve"/>
    </contour>
  </outline>
</glyph>
<glyph name="sterling" format="1">
  <advance width="612"/>
  <unicode hex="00A3"/>
  <outline>
    <contour>
      <point x="278" y="378" type="line"/>
      <point x="350" y="378" type="line"/>
      <point x="350" y="282" type="line"/>
      <point x="278" y="282" type="line"/>
      <point x="278" y="210" type="line"/>
      <point x="496" y="210" type="line"/>
      <point x="496" y="102" type="line"/>
      <point x="104" y="102" type="line"/>
      <point x="104" y="210" type="line"/>
      <point x="164" y="210" type="line"/>
      <point x="164" y="282" type="line"/>
      <point x="104" y="282" type="line"/>
      <point x="104" y="378" type="line"/>
      <point x="164" y="378" type="line"/>
      <point x="164" y="438" type="line"/>
      <point x="164" y="523"/>
      <point x="259" y="612"/>
      <point x="336" y="612" type="qcurve"/>
      <point x="373" y="612"/>
      <point x="437" y="589"/>
      <point x="482" y="545"/>
      <point x="508" y="481"/>
      <point x="508" y="440" type="qcurve"/>
      <point x="508" y="422" type="line"/>
      <point x="394" y="422" type="line"/>
      <point x="394" y="442" type="line"/>
      <point x="394" y="466"/>
      <point x="368" y="504"/>
      <point x="336" y="504" type="qcurve"/>
      <point x="304" y="504"/>
      <point x="278" y="466"/>
      <point x="278" y="442" type="qcurve"/>
    </contour>
  </outline>
</glyph>
<glyph name="brokenbar" format="1">
  <advance width="612"/>
  <unicode hex="00A6"/>
  <outline>
    <contour>
      <point x="366" y="290" type="line"/>
      <point x="366" y="-156" type="line"/>
      <point x="246" y="-156" type="line"/>
      <point x="246" y="290" type="line"/>
    </contour>
    <contour>
      <point x="246" y="410" type="line"/>
      <point x="246" y="856" type="line"/>
      <point x="366" y="856" type="line"/>
      <point x="366" y="410" type="line"/>
    </contour>
  </outline>
</glyph>
<glyph name="degree" format="1">
  <advance width="612"/>
  <unicode hex="00B0"/>
  <outline>
    <contour>
      <point x="149" y="569" type="qcurve"/>
      <point x="149" y="602"/>
      <point x="174" y="659"/>
      <point x="216" y="701"/>
      <point x="273" y="726"/>
      <point x="306" y="726" type="qcurve"/>
      <point x="339" y="726"/>
      <point x="396" y="701"/>
      <point x="438" y="659"/>
      <point x="463" y="602"/>
      <point x="463" y="569" type="qcurve"/>
      <point x="463" y="536"/>
      <point x="438" y="479"/>
      <point x="396" y="437"/>
      <point x="339" y="412"/>
      <point x="306" y="412" type="qcurve"/>
      <point x="273" y="412"/>
      <point x="216" y="437"/>
      <point x="174" y="479"/>
      <point x="149" y="536"/>
    </contour>
    <contour>
      <point x="257" y="569" type="qcurve"/>
      <point x="257" y="549"/>
      <point x="286" y="520"/>
      <point x="306" y="520" type="qcurve"/>
      <point x="326" y="520"/>
      <point x="355" y="549"/>
      <point x="355" y="569" type="qcurve"/>
      <point x="355" y="589"/>
      <point x="326" y="618"/>
      <point x="306" y="618" type="qcurve"/>
      <point x="286" y="618"/>
      <point x="257" y="589"/>
    </contour>
  </outline>
</glyph>
<glyph name="twosuperior" format="1">
  <advance width="612"/>
  <unicode hex="00B2"/>
  <outline>
    <contour>
      <point x="413" y="484" type="line"/>
      <point x="413" y="412" type="line"/>
      <point x="200" y="412" type="line"/>
      <point x="200" y="478" type="line"/>
      <point x="200" y="500"/>
      <point x="215" y="533"/>
      <point x="240" y="556"/>
      <point x="271" y="570"/>
      <point x="288" y="574" type="qcurve"/>
      <point x="321" y="582"/>
      <point x="338" y="597"/>
      <point x="338" y="608" type="qcurve"/>
      <point x="338" y="619"/>
      <point x="323" y="634"/>
      <point x="309" y="634" type="qcurve"/>
      <point x="278" y="634"/>
      <point x="278" y="598" type="qcurve"/>
      <point x="200" y="598" type="line"/>
      <point x="200" y="604" type="line"/>
      <point x="200" y="651"/>
      <point x="260" y="706"/>
      <point x="313" y="706" type="qcurve"/>
      <point x="360" y="706"/>
      <point x="416" y="652"/>
      <point x="416" y="616" type="qcurve"/>
      <point x="416" y="575"/>
      <point x="376" y="532"/>
      <point x="344" y="524" type="qcurve"/>
      <point x="305" y="513"/>
      <point x="278" y="499"/>
      <point x="278" y="484" type="qcurve"/>
    </contour>
  </outline>
</glyph>
<glyph name="threesuperior" format="1">
  <advance width="612"/>
  <unicode hex="00B3"/>
  <outline>
    <contour>
      <point x="200" y="512" type="line"/>
      <point x="278" y="512" type="line"/>
      <point x="278" y="506" type="line"/>
      <point x="278" y="492"/>
      <point x="294" y="478"/>
      <point x="308" y="478" type="qcurve"/>
      <point x="322" y="478"/>
      <point x="338" y="492"/>
      <point x="338" y="506" type="qcurve"/>
      <point x="338" y="536"/>
      <point x="304" y="536" type="qcurve"/>
      <point x="278" y="536" type="line"/>
      <point x="278" y="606" type="line"/>
      <point x="324" y="621" type="line"/>
      <point x="324" y="630" type="line"/>
      <point x="209" y="630" type="line"/>
      <point x="209" y="700" type="line"/>
      <point x="402" y="700" type="line"/>
      <point x="402" y="602" type="line"/>
      <point x="356" y="585" type="line"/>
      <point x="356" y="576" type="line"/>
      <point x="379" y="571"/>
      <point x="416" y="535"/>
      <point x="416" y="502" type="qcurve"/>
      <point x="416" y="459"/>
      <point x="360" y="406"/>
      <point x="312" y="406" type="qcurve"/>
      <point x="255" y="406"/>
      <point x="200" y="464"/>
      <point x="200" y="500" type="qcurve"/>
    </contour>
  </outline>
</glyph>
<glyph name="mu" format="1">
  <advance width="612"/>
  <unicode hex="00B5"/>
  <outline>
    <contour>
      <point x="411" y="30" type="line"/>
      <point x="393" y="30" type="line"/>
      <point x="383" y="10"/>
      <point x="341" y="-14"/>
      <point x="306" y="-14" type="qcurve"/>
      <point x="271" y="-14"/>
      <point x="229" y="10"/>
      <point x="219" y="30" type="qcurve"/>
      <point x="201" y="30" type="line"/>
      <point x="201" y="-200" type="line"/>
      <point x="75" y="-200" type="line"/>
      <point x="75" y="496" type="line"/>
      <point x="201" y="496" type="line"/>
      <point x="201" y="220" type="line"/>
      <point x="201" y="195"/>
      <point x="211" y="152"/>
      <point x="236" y="119"/>
      <point x="276" y="100"/>
      <point x="306" y="100" type="qcurve"/>
      <point x="336" y="100"/>
      <point x="376" y="119"/>
      <point x="401" y="152"/>
      <point x="411" y="195"/>
      <point x="411" y="220" type="qcurve"/>
      <point x="411" y="496" type="line"/>
      <point x="537" y="496" type="line"/>
      <point x="537" y="0" type="line"/>
      <point x="411" y="0" type="line"/>
    </contour>
  </outline>
</glyph>
<glyph name="AE" format="1">
  <advance width="612"/>
  <unicode hex="00C6"/>
  <outline>
    <contour>
      <point x="286" y="150" type="line"/>
      <point x="172" y="150" type="line"/>
      <point x="138" y="0" type="line"/>
      <point x="0" y="0" type="line"/>
      <point x="167" y="700" type="line"/>
      <point x="590" y="700" type="line"/>
      <point x="590" y="574" type="line"/>
      <point x="418" y="574" type="line"/>
      <point x="418" y="414" type="line"/>
      <point x="584" y="414" type="line"/>
      <point x="584" y="288" type="line"/>
      <point x="418" y="288" type="line"/>
      <point x="418" y="126" type="line"/>
      <point x="596" y="126" type="line"/>
      <point x="596" y="0" type="line"/>
      <point x="286" y="0" type="line"/>
    </contour>
    <contour>
      <point x="200" y="276" type="line"/>
      <point x="286" y="276" type="line"/>
      <point x="286" y="574" type="line"/>
      <point x="268" y="574" type="line"/>
    </contour>
  </outline>
</glyph>
<glyph name="Thorn" format="1">
  <advance width="612"/>
  <unicode hex="00DE"/>
  <outline>
    <contour>
      <point x="202" y="132" type="line"/>
      <point x="202" y="0" type="line"/>
      <point x="70" y="0" type="line"/>
      <point x="70" y="700" type="line"/>
      <point x="202" y="700" type="line"/>
      <point x="202" y="568" type="line"/>
      <point x="344" y="568" type="line"/>
      <point x="398" y="568"/>
      <point x="478" y="533"/>
      <point x="531" y="476"/>
      <point x="558" y="403"/>
      <point x="558" y="365" type="qcurve"/>
      <point x="558" y="341" type="line"/>
      <point x="558" y="302"/>
      <point x="531" y="227"/>
      <point x="478" y="168"/>
      <point x="398" y="132"/>
      <point x="344" y="132" type="qcurve"/>
    </contour>
    <contour>
      <point x="202" y="258" type="line"/>
      <point x="331" y="258" type="line"/>
      <point x="375" y="258"/>
      <point x="426" y="306"/>
      <point x="426" y="344" type="qcurve"/>
      <point x="426" y="356" type="line"/>
      <point x="426" y="394"/>
      <point x="375" y="442"/>
      <point x="331" y="442" type="qcurve"/>
      <point x="202" y="442" type="line"/>
    </contour>
  </outline>
</glyph>
<glyph name="ae" format="1">
  <advance width="612"/>
  <unicode hex="00E6"/>
  <outline>
    <contour>
      <point x="182" y="147" type="qcurve"/>
      <point x="182" y="127"/>
      <point x="208" y="106"/>
      <point x="228" y="106" type="qcurve"/>
      <point x="240" y="106" type="line"/>
      <point x="240" y="188" type="line"/>
      <point x="228" y="188" type="line"/>
      <point x="208" y="188"/>
      <point x="182" y="167"/>
    </contour>
    <contour>
      <point x="432" y="308" type="line"/>
      <point x="432" y="341"/>
      <point x="396" y="381"/>
      <point x="366" y="386" type="qcurve"/>
      <point x="366" y="308" type="line"/>
    </contour>
    <contour>
      <point x="298" y="510" type="qcurve"/>
      <point x="360" y="510"/>
      <point x="457" y="474"/>
      <point x="523" y="410"/>
      <point x="558" y="323"/>
      <point x="558" y="272" type="qcurve"/>
      <point x="558" y="188" type="line"/>
      <point x="366" y="188" type="line"/>
      <point x="366" y="110" type="line"/>
      <point x="390" y="110"/>
      <point x="429" y="131"/>
      <point x="438" y="152" type="qcurve"/>
      <point x="540" y="88" type="line"/>
      <point x="510" y="34"/>
      <point x="398" y="-14"/>
      <point x="313" y="-14" type="qcurve"/>
      <point x="284" y="-14" type="line"/>
      <point x="235" y="-14"/>
      <point x="152" y="4"/>
      <point x="91" y="43"/>
      <point x="56" y="104"/>
      <point x="56" y="146" type="qcurve"/>
      <point x="56" y="158" type="line"/>
      <point x="56" y="193"/>
      <point x="84" y="249"/>
      <point x="132" y="288"/>
      <point x="195" y="308"/>
      <point x="230" y="308" type="qcurve"/>
      <point x="240" y="308" type="line"/>
      <point x="240" y="386" type="line"/>
      <point x="220" y="386"/>
      <point x="181" y="358"/>
      <point x="170" y="338" type="qcurve"/>
      <point x="88" y="424" type="line"/>
      <point x="121" y="466"/>
      <point x="223" y="510"/>
    </contour>
  </outline>
</glyph>
<glyph name="ccedilla" format="1">
  <advance width="612"/>
  <unicode hex="00E7"/>
  <outline>
    <contour>
      <point x="562" y="182" type="line"/>
      <point x="546" y="100"/>
      <point x="435" y="-4"/>
      <point x="341" y="-12" type="qcurve"/>
      <point x="334" y="-46" type="line"/>
      <point x="346" y="-46" type="line"/>
      <point x="351" y="-37"/>
      <point x="373" y="-24"/>
      <point x="392" y="-24" type="qcurve"/>
      <point x="434" y="-24"/>
      <point x="475" y="-76"/>
      <point x="475" y="-112" type="qcurve"/>
      <point x="475" y="-159"/>
      <point x="412" y="-212"/>
      <point x="365" y="-212" type="qcurve"/>
      <point x="336" y="-212"/>
      <point x="298" y="-201"/>
      <point x="281" y="-192" type="qcurve"/>
      <point x="307" y="-124" type="line"/>
      <point x="330" y="-138"/>
      <point x="357" y="-138" type="qcurve"/>
      <point x="372" y="-138"/>
      <point x="391" y="-124"/>
      <point x="391" y="-112" type="qcurve"/>
      <point x="391" y="-103"/>
      <point x="381" y="-90"/>
      <point x="371" y="-90" type="qcurve"/>
      <point x="354" y="-90"/>
      <point x="351" y="-104" type="qcurve"/>
      <point x="254" y="-104" type="line"/>
      <point x="254" y="-92" type="line"/>
      <point x="271" y="-11" type="line"/>
      <point x="224" y="-5"/>
      <point x="143" y="33"/>
      <point x="85" y="96"/>
      <point x="52" y="184"/>
      <point x="52" y="238" type="qcurve"/>
      <point x="52" y="250" type="line"/>
      <point x="52" y="310"/>
      <point x="92" y="406"/>
      <point x="163" y="474"/>
      <point x="258" y="510"/>
      <point x="312" y="510" type="qcurve"/>
      <point x="416" y="510"/>
      <point x="545" y="402"/>
      <point x="562" y="314" type="qcurve"/>
      <point x="438" y="282" type="line"/>
      <point x="432" y="326"/>
      <point x="368" y="390"/>
      <point x="310" y="390" type="qcurve"/>
      <point x="283" y="390"/>
      <point x="235" y="370"/>
      <point x="199" y="333"/>
      <point x="178" y="280"/>
      <point x="178" y="247" type="qcurve"/>
      <point x="178" y="241" type="line"/>
      <point x="178" y="208"/>
      <point x="199" y="157"/>
      <point x="235" y="123"/>
      <point x="283" y="106"/>
      <point x="310" y="106" type="qcurve"/>
      <point x="368" y="106"/>
      <point x="429" y="164"/>
      <point x="438" y="213" type="qcurve"/>
    </contour>
  </outline>
</glyph>
<glyph name="divide" format="1">
  <advance width="612"/>
  <unicode hex="00F7"/>
  <outline>
    <contour>
      <point x="97" y="407" type="line"/>
      <point x="515" y="407" type="line"/>
      <point x="515" y="293" type="line"/>
      <point x="97" y="293" type="line"/>
    </contour>
    <contour>
      <point x="392" y="159" type="qcurve"/>
      <point x="392" y="141"/>
      <point x="378" y="110"/>
      <point x="355" y="86"/>
      <point x="324" y="73"/>
      <point x="306" y="73" type="qcurve"/>
      <point x="288" y="73"/>
      <point x="257" y="86"/>
      <point x="234" y="110"/>
      <point x="220" y="141"/>
      <point x="220" y="159" type="qcurve"/>
      <point x="220" y="177"/>
      <point x="234" y="208"/>
      <point x="257" y="232"/>
      <point x="288" y="245"/>
      <point x="306" y="245" type="qcurve"/>
      <point x="324" y="245"/>
      <point x="355" y="232"/>
      <point x="378" y="208"/>
      <point x="392" y="177"/>
    </contour>
    <contour>
      <point x="392" y="541" type="qcurve"/>
      <point x="392" y="523"/>
      <point x="378" y="492"/>
      <point x="355" y="468"/>
      <point x="324" y="455"/>
      <point x="306" y="455" type="qcurve"/>
      <point x="288" y="455"/>
      <point x="257" y="468"/>
      <point x="234" y="492"/>
      <point x="220" y="523"/>
      <point x="220" y="541" type="qcurve"/>
      <point x="220" y="559"/>
      <point x="234" y="590"/>
      <point x="257" y="614"/>
      <point x="288" y="627"/>
      <point x="306" y="627" type="qcurve"/>
      <point x="324" y="627"/>
      <point x="355" y="614"/>
      <point x="378" y="590"/>
      <point x="392" y="559"/>
    </contour>
  </outline>
</glyph>
<glyph name="oslash" format="1">
  <advance width="612"/>
  <unicode hex="00F8"/>
  <outline>
    <contour>
      <point x="564" y="242" type="line"/>
      <point x="564" y="180"/>
      <point x="522" y="85"/>
      <point x="450" y="20"/>
      <point x="357" y="-14"/>
      <point x="306" y="-14" type="qcurve"/>
      <point x="300" y="-14"/>
      <point x="287" y="-13"/>
      <point x="281" y="-13" type="qcurve"/>
      <point x="262" y="-73" type="line"/>
      <point x="152" y="-39" type="line"/>
      <point x="171" y="20" type="line"/>
      <point x="117" y="50"/>
      <point x="48" y="162"/>
      <point x="48" y="242" type="qcurve"/>
      <point x="48" y="254" type="line"/>
      <point x="48" y="315"/>
      <point x="90" y="410"/>
      <point x="162" y="476"/>
      <point x="255" y="510"/>
      <point x="306" y="510" type="qcurve"/>
      <point x="313" y="510"/>
      <point x="326" y="510"/>
      <point x="332" y="509" type="qcurve"/>
      <point x="351" y="565" type="line"/>
      <point x="460" y="531" type="line"/>
      <point x="441" y="475" type="line"/>
      <point x="495" y="444"/>
      <point x="564" y="332"/>
      <point x="564" y="254" type="qcurve"/>
    </contour>
    <contour>
      <point x="174" y="238" type="line"/>
      <point x="174" y="207"/>
      <point x="195" y="159"/>
      <point x="212" y="142" type="qcurve"/>
      <point x="293" y="389" type="line"/>
      <point x="242" y="385"/>
      <point x="174" y="316"/>
      <point x="174" y="258" type="qcurve"/>
    </contour>
    <contour>
      <point x="438" y="258" type="line"/>
      <point x="438" y="316"/>
      <point x="402" y="352" type="qcurve"/>
      <point x="321" y="107" type="line"/>
      <point x="371" y="112"/>
      <point x="438" y="180"/>
      <point x="438" y="238" type="qcurve"/>
    </contour>
  </outline>
</glyph>
<glyph name="thorn" format="1">
  <advance width="612"/>
  <unicode hex="00FE"/>
  <outline>
    <contour>
      <point x="306" y="106" type="qcurve"/>
      <point x="365" y="106"/>
      <point x="438" y="179"/>
      <point x="438" y="242" type="qcurve"/>
      <point x="438" y="254" type="line"/>
      <point x="438" y="317"/>
      <point x="365" y="390"/>
      <point x="306" y="390" type="qcurve"/>
      <point x="247" y="390"/>
      <point x="174" y="315"/>
      <point x="174" y="254" type="qcurve"/>
      <point x="174" y="242" type="line"/>
      <point x="174" y="181"/>
      <point x="247" y="106"/>
    </contour>
    <contour>
      <point x="174" y="-212" type="line"/>
      <point x="48" y="-212" type="line"/>
      <point x="48" y="700" type="line"/>
      <point x="174" y="700" type="line"/>
      <point x="174" y="424" type="line"/>
      <point x="192" y="424" type="line"/>
      <point x="212" y="465"/>
      <point x="288" y="510"/>
      <point x="347" y="510" type="qcurve"/>
      <point x="391" y="510"/>
      <point x="470" y="476"/>
      <point x="529" y="411"/>
      <point x="564" y="317"/>
      <point x="564" y="257" type="qcurve"/>
      <point x="564" y="239" type="line"/>
      <point x="564" y="178"/>
      <point x="530" y="84"/>
      <point x="472" y="19"/>
      <point x="393" y="-14"/>
      <point x="347" y="-14" type="qcurve"/>
      <point x="313" y="-14"/>
      <point x="263" y="0"/>
      <point x="226" y="24"/>
      <point x="201" y="55"/>
      <point x="192" y="72" type="qcurve"/>
      <point x="174" y="72" type="line"/>
    </contour>
  </outline>
</glyph>
<glyph name="dcaron" format="1">
  <advance width="612"/>
  <unicode hex="010F"/>
  <outline>
    <contour>
      <point x="270" y="40" type="line"/>
      <point x="252" y="40" type="line"/>
      <point x="244" y="13"/>
      <point x="199" y="-14"/>
      <point x="164" y="-14" type="qcurve"/>
      <point x="89" y="-14"/>
      <point x="18" y="110"/>
      <point x="18" y="235" type="qcurve"/>
      <point x="18" y="269" type="line"/>
      <point x="18" y="398"/>
      <point x="96" y="510"/>
      <point x="164" y="510" type="qcurve"/>
      <point x="197" y="510"/>
      <point x="246" y="478"/>
      <point x="252" y="454" type="qcurve"/>
      <point x="270" y="454" type="line"/>
      <point x="270" y="700" type="line"/>
      <point x="396" y="700" type="line"/>
      <point x="396" y="0" type="line"/>
      <point x="270" y="0" type="line"/>
    </contour>
    <contour>
      <point x="209" y="390" type="qcurve"/>
      <point x="174" y="390"/>
      <point x="144" y="329"/>
      <point x="144" y="263" type="qcurve"/>
      <point x="144" y="233" type="line"/>
      <point x="144" y="167"/>
      <point x="174" y="106"/>
      <point x="209" y="106" type="qcurve"/>
      <point x="241" y="106"/>
      <point x="270" y="153"/>
      <point x="270" y="194" type="qcurve"/>
      <point x="270" y="302" type="line"/>
      <point x="270" y="343"/>
      <point x="241" y="390"/>
    </contour>
    <contour>
      <point x="600" y="496" type="line"/>
      <point x="600" y="458"/>
      <point x="548" y="406"/>
      <point x="510" y="406" type="qcurve"/>
      <point x="450" y="406" type="line"/>
      <point x="450" y="484" type="line"/>
      <point x="495" y="484" type="line"/>
      <point x="522" y="484"/>
      <point x="522" y="514" type="qcurve"/>
      <point x="522" y="526" type="line"/>
      <point x="513" y="526" type="line"/>
      <point x="495" y="526"/>
      <point x="464" y="540"/>
      <point x="440" y="564"/>
      <point x="426" y="595"/>
      <point x="426" y="613" type="qcurve"/>
      <point x="426" y="631"/>
      <point x="440" y="662"/>
      <point x="464" y="686"/>
      <point x="495" y="700"/>
      <point x="513" y="700" type="qcurve"/>
      <point x="531" y="700"/>
      <point x="562" y="686"/>
      <point x="586" y="662"/>
      <point x="600" y="631"/>
      <point x="600" y="613" type="qcurve"/>
    </contour>
  </outline>
</glyph>
<glyph name="eogonek" format="1">
  <advance width="612"/>
  <unicode hex="0119"/>
  <outline>
    <contour>
      <point x="189" y="207" type="line"/>
      <point x="190" y="185"/>
      <point x="209" y="148"/>
      <point x="242" y="121"/>
      <point x="285" y="106"/>
      <point x="309" y="106" type="qcurve"/>
      <point x="356" y="106"/>
      <point x="406" y="139"/>
      <point x="417" y="162" type="qcurve"/>
      <point x="525" y="102" type="line"/>
      <point x="517" y="85"/>
      <point x="489" y="48"/>
      <point x="446" y="15"/>
      <point x="386" y="-8"/>
      <point x="346" y="-12" type="qcurve"/>
      <point x="336" y="-56" type="line"/>
      <point x="335" y="-61"/>
      <point x="335" y="-64" type="qcurve"/>
      <point x="335" y="-86"/>
      <point x="358" y="-86" type="qcurve"/>
      <point x="404" y="-86" type="line"/>
      <point x="404" y="-170" type="line"/>
      <point x="324" y="-170" type="line"/>
      <point x="294" y="-170"/>
      <point x="244" y="-132"/>
      <point x="244" y="-95" type="qcurve"/>
      <point x="244" y="-86"/>
      <point x="247" y="-72" type="qcurve"/>
      <point x="261" y="-10" type="line"/>
      <point x="170" y="5"/>
      <point x="59" y="139"/>
      <point x="59" y="250" type="qcurve"/>
      <point x="59" y="256" type="line"/>
      <point x="59" y="313"/>
      <point x="98" y="407"/>
      <point x="166" y="473"/>
      <point x="257" y="510"/>
      <point x="309" y="510" type="qcurve"/>
      <point x="373" y="510"/>
      <point x="465" y="465"/>
      <point x="525" y="396"/>
      <point x="553" y="313"/>
      <point x="553" y="274" type="qcurve"/>
      <point x="553" y="207" type="line"/>
    </contour>
    <contour>
      <point x="308" y="396" type="qcurve"/>
      <point x="260" y="396"/>
      <point x="200" y="347"/>
      <point x="191" y="315" type="qcurve"/>
      <point x="425" y="315" type="line"/>
      <point x="419" y="350"/>
      <point x="356" y="396"/>
    </contour>
  </outline>
</glyph>
<glyph name="uni0123" format="1">
  <advance width="612"/>
  <unicode hex="0123"/>
  <outline>
    <contour>
      <point x="177" y="778" type="line"/>
      <point x="177" y="816"/>
      <point x="229" y="868"/>
      <point x="267" y="868" type="qcurve"/>
      <point x="327" y="868" type="line"/>
      <point x="327" y="790" type="line"/>
      <point x="282" y="790" type="line"/>
      <point x="255" y="790"/>
      <point x="255" y="760" type="qcurve"/>
      <point x="255" y="748" type="line"/>
      <point x="264" y="748" type="line"/>
      <point x="282" y="748"/>
      <point x="313" y="734"/>
      <point x="337" y="710"/>
      <point x="351" y="679"/>
      <point x="351" y="661" type="qcurve"/>
      <point x="351" y="643"/>
      <point x="337" y="612"/>
      <point x="313" y="588"/>
      <point x="282" y="574"/>
      <point x="264" y="574" type="qcurve"/>
      <point x="246" y="574"/>
      <point x="215" y="588"/>
      <point x="191" y="612"/>
      <point x="177" y="643"/>
      <point x="177" y="661" type="qcurve"/>
    </contour>
    <component base="g"/>
  </outline>
</glyph>
<glyph name="uni0137" format="1">
  <advance width="612"/>
  <unicode hex="0137"/>
  <outline>
    <contour>
      <point x="413" y="-248" type="line"/>
      <point x="413" y="-286"/>
      <point x="361" y="-338"/>
      <point x="323" y="-338" type="qcurve"/>
      <point x="263" y="-338" type="line"/>
      <point x="263" y="-260" type="line"/>
      <point x="308" y="-260" type="line"/>
      <point x="335" y="-260"/>
      <point x="335" y="-230" type="qcurve"/>
      <point x="335" y="-218" type="line"/>
      <point x="326" y="-218" type="line"/>
      <point x="308" y="-218"/>
      <point x="277" y="-204"/>
      <point x="253" y="-180"/>
      <point x="239" y="-149"/>
      <point x="239" y="-131" type="qcurve"/>
      <point x="239" y="-113"/>
      <point x="253" y="-82"/>
      <point x="277" y="-58"/>
      <point x="308" y="-44"/>
      <point x="326" y="-44" type="qcurve"/>
      <point x="344" y="-44"/>
      <point x="375" y="-58"/>
      <point x="399" y="-82"/>
      <point x="413" y="-113"/>
      <point x="413" y="-131" type="qcurve"/>
    </contour>
    <component base="k"/>
  </outline>
</glyph>
<glyph name="napostrophe" format="1">
  <advance width="612"/>
  <unicode hex="0149"/>
  <outline>
    <contour>
      <point x="228" y="628" type="line"/>
      <point x="228" y="590"/>
      <point x="176" y="538"/>
      <point x="138" y="538" type="qcurve"/>
      <point x="78" y="538" type="line"/>
      <point x="78" y="616" type="line"/>
      <point x="123" y="616" type="line"/>
      <point x="150" y="616"/>
      <point x="150" y="646" type="qcurve"/>
      <point x="150" y="652" type="line"/>
      <point x="141" y="652" type="line"/>
      <point x="123" y="652"/>
      <point x="92" y="666"/>
      <point x="68" y="690"/>
      <point x="54" y="721"/>
      <point x="54" y="739" type="qcurve"/>
      <point x="54" y="757"/>
      <point x="68" y="788"/>
      <point x="92" y="812"/>
      <point x="123" y="826"/>
      <point x="141" y="826" type="qcurve"/>
      <point x="159" y="826"/>
      <point x="190" y="812"/>
      <point x="214" y="788"/>
      <point x="228" y="757"/>
      <point x="228" y="739" type="qcurve"/>
    </contour>
    <component base="n"/>
  </outline>
</glyph>
<glyph name="oe" format="1">
  <advance width="612"/>
  <unicode hex="0153"/>
  <outline>
    <contour>
      <point x="44" y="254" type="line"/>
      <point x="44" y="313"/>
      <point x="88" y="408"/>
      <point x="161" y="474"/>
      <point x="257" y="510"/>
      <point x="310" y="510" type="qcurve"/>
      <point x="316" y="510" type="line"/>
      <point x="375" y="510"/>
      <point x="469" y="474"/>
      <point x="534" y="410"/>
      <point x="568" y="323"/>
      <point x="568" y="272" type="qcurve"/>
      <point x="568" y="188" type="line"/>
      <point x="376" y="188" type="line"/>
      <point x="376" y="110" type="line"/>
      <point x="400" y="110"/>
      <point x="439" y="131"/>
      <point x="448" y="152" type="qcurve"/>
      <point x="550" y="88" type="line"/>
      <point x="520" y="34"/>
      <point x="403" y="-14"/>
      <point x="318" y="-14" type="qcurve"/>
      <point x="312" y="-14" type="line"/>
      <point x="261" y="-14"/>
      <point x="164" y="20"/>
      <point x="89" y="85"/>
      <point x="44" y="180"/>
      <point x="44" y="242" type="qcurve"/>
    </contour>
    <contour>
      <point x="170" y="248" type="qcurve"/>
      <point x="170" y="198"/>
      <point x="212" y="131"/>
      <point x="250" y="116" type="qcurve"/>
      <point x="250" y="382" type="line"/>
      <point x="212" y="367"/>
      <point x="170" y="298"/>
    </contour>
    <contour>
      <point x="442" y="308" type="line"/>
      <point x="442" y="341"/>
      <point x="406" y="381"/>
      <point x="376" y="386" type="qcurve"/>
      <point x="376" y="308" type="line"/>
    </contour>
  </outline>
</glyph>
<glyph name="uni0156" format="1">
  <advance width="612"/>
  <unicode hex="0156"/>
  <outline>
    <contour>
      <point x="395" y="-248" type="line"/>
      <point x="395" y="-286"/>
      <point x="343" y="-338"/>
      <point x="305" y="-338" type="qcurve"/>
      <point x="245" y="-338" type="line"/>
      <point x="245" y="-260" type="line"/>
      <point x="290" y="-260" type="line"/>
      <point x="317" y="-260"/>
      <point x="317" y="-230" type="qcurve"/>
      <point x="317" y="-218" type="line"/>
      <point x="308" y="-218" type="line"/>
      <point x="290" y="-218"/>
      <point x="259" y="-204"/>
      <point x="235" y="-180"/>
      <point x="221" y="-149"/>
      <point x="221" y="-131" type="qcurve"/>
      <point x="221" y="-113"/>
      <point x="235" y="-82"/>
      <point x="259" y="-58"/>
      <point x="290" y="-44"/>
      <point x="308" y="-44" type="qcurve"/>
      <point x="326" y="-44"/>
      <point x="357" y="-58"/>
      <point x="381" y="-82"/>
      <point x="395" y="-113"/>
      <point x="395" y="-131" type="qcurve"/>
    </contour>
    <component base="R"/>
  </outline>
</glyph>
<glyph name="uni0157" format="1">
  <advance width="612"/>
  <unicode hex="0157"/>
  <outline>
    <contour>
      <point x="294" y="-248" type="line"/>
      <point x="294" y="-286"/>
      <point x="242" y="-338"/>
      <point x="204" y="-338" type="qcurve"/>
      <point x="144" y="-338" type="line"/>
      <point x="144" y="-260" type="line"/>
      <point x="189" y="-260" type="line"/>
      <point x="216" y="-260"/>
      <point x="216" y="-230" type="qcurve"/>
      <point x="216" y="-218" type="line"/>
      <point x="207" y="-218" type="line"/>
      <point x="189" y="-218"/>
      <point x="158" y="-204"/>
      <point x="134" y="-180"/>
      <point x="120" y="-149"/>
      <point x="120" y="-131" type="qcurve"/>
      <point x="120" y="-113"/>
      <point x="134" y="-82"/>
      <point x="158" y="-58"/>
      <point x="189" y="-44"/>
      <point x="207" y="-44" type="qcurve"/>
      <point x="225" y="-44"/>
      <point x="256" y="-58"/>
      <point x="280" y="-82"/>
      <point x="294" y="-113"/>
      <point x="294" y="-131" type="qcurve"/>
    </contour>
    <component base="r"/>
  </outline>
</glyph>
<glyph name="scedilla" format="1">
  <advance width="612"/>
  <unicode hex="015F"/>
  <outline>
    <contour>
      <point x="236" y="356" type="qcurve"/>
      <point x="236" y="332"/>
      <point x="286" y="311"/>
      <point x="352" y="304" type="qcurve"/>
      <point x="428" y="296"/>
      <point x="524" y="221"/>
      <point x="524" y="154" type="qcurve"/>
      <point x="524" y="148" type="line"/>
      <point x="524" y="74"/>
      <point x="416" y="-14"/>
      <point x="318" y="-14" type="qcurve"/>
      <point x="308" y="-14" type="line"/>
      <point x="301" y="-46" type="line"/>
      <point x="313" y="-46" type="line"/>
      <point x="318" y="-37"/>
      <point x="340" y="-24"/>
      <point x="359" y="-24" type="qcurve"/>
      <point x="401" y="-24"/>
      <point x="442" y="-76"/>
      <point x="442" y="-112" type="qcurve"/>
      <point x="442" y="-159"/>
      <point x="379" y="-212"/>
      <point x="332" y="-212" type="qcurve"/>
      <point x="303" y="-212"/>
      <point x="265" y="-201"/>
      <point x="248" y="-192" type="qcurve"/>
      <point x="274" y="-124" type="line"/>
      <point x="297" y="-138"/>
      <point x="324" y="-138" type="qcurve"/>
      <point x="339" y="-138"/>
      <point x="358" y="-124"/>
      <point x="358" y="-112" type="qcurve"/>
      <point x="358" y="-103"/>
      <point x="348" y="-90"/>
      <point x="338" y="-90" type="qcurve"/>
      <point x="321" y="-90"/>
      <point x="318" y="-104" type="qcurve"/>
      <point x="221" y="-104" type="line"/>
      <point x="221" y="-92" type="line"/>
      <point x="240" y="-5" type="line"/>
      <point x="204" y="4"/>
      <point x="151" y="37"/>
      <point x="115" y="77"/>
      <point x="94" y="121"/>
      <point x="90" y="142" type="qcurve"/>
      <point x="206" y="180" type="line"/>
      <point x="214" y="148"/>
      <point x="265" y="100"/>
      <point x="318" y="100" type="qcurve"/>
      <point x="365" y="100"/>
      <point x="400" y="129"/>
      <point x="400" y="146" type="qcurve"/>
      <point x="400" y="156"/>
      <point x="391" y="173"/>
      <point x="367" y="188"/>
      <point x="326" y="198"/>
      <point x="295" y="201" type="qcurve"/>
      <point x="211" y="208"/>
      <point x="112" y="281"/>
      <point x="112" y="352" type="qcurve"/>
      <point x="112" y="358" type="line"/>
      <point x="112" y="395"/>
      <point x="144" y="451"/>
      <point x="196" y="490"/>
      <point x="264" y="510"/>
      <point x="300" y="510" type="qcurve"/>
      <point x="347" y="510"/>
      <point x="416" y="487"/>
      <point x="464" y="450"/>
      <point x="494" y="405"/>
      <point x="502" y="384" type="qcurve"/>
      <point x="388" y="338" type="line"/>
      <point x="379" y="365"/>
      <point x="335" y="396"/>
      <point x="300" y="396" type="qcurve"/>
      <point x="268" y="396"/>
      <point x="236" y="373"/>
    </contour>
  </outline>
</glyph>
<glyph name="Tbar" format="1">
  <advance width="612"/>
  <unicode hex="0166"/>
  <outline>
    <contour>
      <point x="54" y="700" type="line"/>
      <point x="558" y="700" type="line"/>
      <point x="558" y="574" type="line"/>
      <point x="372" y="574" type="line"/>
      <point x="372" y="449" type="line"/>
      <point x="510" y="449" type="line"/>
      <point x="510" y="329" type="line"/>
      <point x="372" y="329" type="line"/>
      <point x="372" y="0" type="line"/>
      <point x="240" y="0" type="line"/>
      <point x="240" y="329" type="line"/>
      <point x="102" y="329" type="line"/>
      <point x="102" y="449" type="line"/>
      <point x="240" y="449" type="line"/>
      <point x="240" y="574" type="line"/>
      <point x="54" y="574" type="line"/>
    </contour>
  </outline>
</glyph>
<glyph name="utilde" format="1">
  <advance width="612"/>
  <unicode hex="0169"/>
  <outline>
    <contour>
      <point x="414" y="496" type="line"/>
      <point x="540" y="496" type="line"/>
      <point x="540" y="0" type="line"/>
      <point x="414" y="0" type="line"/>
      <point x="414" y="72" type="line"/>
      <point x="396" y="72" type="line"/>
      <point x="363" y="-14"/>
      <point x="254" y="-14" type="qcurve"/>
      <point x="217" y="-14"/>
      <point x="153" y="10"/>
      <point x="105" y="60"/>
      <point x="78" y="135"/>
      <point x="78" y="186" type="qcurve"/>
      <point x="78" y="496" type="line"/>
      <point x="204" y="496" type="line"/>
      <point x="204" y="212" type="line"/>
      <point x="204" y="159"/>
      <point x="254" y="100"/>
      <point x="304" y="100" type="qcurve"/>
      <point x="361" y="100"/>
      <point x="414" y="173"/>
      <point x="414" y="236" type="qcurve"/>
    </contour>
    <component base="tilde" xOffset="-2" yOffset="-6"/>
  </outline>
</glyph>
<glyph name="longs" format="1">
  <advance width="612"/>
  <unicode hex="017F"/>
  <outline>
    <contour>
      <point x="170" y="496" type="line"/>
      <point x="230" y="496" type="line"/>
      <point x="230" y="598" type="line"/>
      <point x="230" y="641"/>
      <point x="288" y="700"/>
      <point x="331" y="700" type="qcurve"/>
      <point x="533" y="700" type="line"/>
      <point x="533" y="580" type="line"/>
      <point x="383" y="580" type="line"/>
      <point x="356" y="580"/>
      <point x="356" y="550" type="qcurve"/>
      <point x="356" y="0" type="line"/>
      <point x="230" y="0" type="line"/>
      <point x="230" y="376" type="line"/>
      <point x="170" y="376" type="line"/>
    </contour>
  </outline>
</glyph>
<glyph name="uni018F" format="1">
  <advance width="612"/>
  <unicode hex="018F"/>
  <outline>
    <contour>
      <point x="48" y="380" type="line"/>
      <point x="432" y="380" type="line"/>
      <point x="432" y="438" type="line"/>
      <point x="432" y="469"/>
      <point x="417" y="526"/>
      <point x="385" y="569"/>
      <point x="337" y="594"/>
      <point x="304" y="594" type="qcurve"/>
      <point x="268" y="594"/>
      <point x="220" y="569"/>
      <point x="192" y="529"/>
      <point x="180" y="479"/>
      <point x="180" y="454" type="qcurve"/>
      <point x="180" y="448" type="line"/>
      <point x="48" y="448" type="line"/>
      <point x="48" y="454" type="line"/>
      <point x="48" y="574"/>
      <point x="179" y="714"/>
      <point x="304" y="714" type="qcurve"/>
      <point x="364" y="714"/>
      <point x="460" y="675"/>
      <point x="528" y="602"/>
      <point x="564" y="495"/>
      <point x="564" y="428" type="qcurve"/>
      <point x="564" y="272" type="line"/>
      <point x="564" y="132"/>
      <point x="424" y="-14"/>
      <point x="304" y="-14" type="qcurve"/>
      <point x="179" y="-14"/>
      <point x="48" y="122"/>
      <point x="48" y="252" type="qcurve"/>
    </contour>
    <contour>
      <point x="304" y="106" type="qcurve"/>
      <point x="339" y="106"/>
      <point x="388" y="128"/>
      <point x="418" y="167"/>
      <point x="432" y="221"/>
      <point x="432" y="254" type="qcurve"/>
      <point x="180" y="254" type="line"/>
      <point x="180" y="246" type="line"/>
      <point x="180" y="219"/>
      <point x="190" y="168"/>
      <point x="217" y="129"/>
      <point x="266" y="106"/>
    </contour>
  </outline>
</glyph>
<glyph name="uni01A0" format="1">
  <advance width="612"/>
  <unicode hex="01A0"/>
  <outline>
    <contour>
      <point x="606" y="492" type="line"/>
      <point x="606" y="454"/>
      <point x="554" y="402"/>
      <point x="516" y="402" type="qcurve"/>
      <point x="422" y="402" type="line"/>
      <point x="422" y="210" type="line"/>
      <point x="422" y="100"/>
      <point x="315" y="-14"/>
      <point x="218" y="-14" type="qcurve"/>
      <point x="121" y="-14"/>
      <point x="14" y="100"/>
      <point x="14" y="210" type="qcurve"/>
      <point x="14" y="490" type="line"/>
      <point x="14" y="600"/>
      <point x="121" y="714"/>
      <point x="218" y="714" type="qcurve"/>
      <point x="315" y="714"/>
      <point x="422" y="600"/>
      <point x="422" y="490" type="qcurve"/>
      <point x="422" y="480" type="line"/>
      <point x="501" y="480" type="line"/>
      <point x="528" y="480"/>
      <point x="528" y="510" type="qcurve"/>
      <point x="528" y="526" type="line"/>
      <point x="519" y="526" type="line"/>
      <point x="501" y="526"/>
      <point x="470" y="540"/>
      <point x="446" y="564"/>
      <point x="432" y="595"/>
      <point x="432" y="613" type="qcurve"/>
      <point x="432" y="631"/>
      <point x="446" y="662"/>
      <point x="470" y="686"/>
      <point x="501" y="700"/>
      <point x="519" y="700" type="qcurve"/>
      <point x="537" y="700"/>
      <point x="568" y="686"/>
      <point x="592" y="662"/>
      <point x="606" y="631"/>
      <point x="606" y="613" type="qcurve"/>
    </contour>
    <contour>
      <point x="218" y="112" type="qcurve"/>
      <point x="251" y="112"/>
      <point x="290" y="157"/>
      <point x="290" y="202" type="qcurve"/>
      <point x="290" y="498" type="line"/>
      <point x="290" y="543"/>
      <point x="251" y="588"/>
      <point x="218" y="588" type="qcurve"/>
      <point x="185" y="588"/>
      <point x="146" y="543"/>
      <point x="146" y="498" type="qcurve"/>
      <point x="146" y="202" type="line"/>
      <point x="146" y="157"/>
      <point x="185" y="112"/>
    </contour>
  </outline>
</glyph>
<glyph name="uni01A1" format="1">
  <advance width="612"/>
  <unicode hex="01A1"/>
  <outline>
    <contour>
      <point x="20" y="254" type="line"/>
      <point x="20" y="375"/>
      <point x="125" y="510"/>
      <point x="221" y="510" type="qcurve"/>
      <point x="311" y="510"/>
      <point x="415" y="390"/>
      <point x="421" y="282" type="qcurve"/>
      <point x="494" y="282" type="line"/>
      <point x="521" y="282"/>
      <point x="521" y="312" type="qcurve"/>
      <point x="521" y="322" type="line"/>
      <point x="512" y="322" type="line"/>
      <point x="494" y="322"/>
      <point x="463" y="336"/>
      <point x="439" y="360"/>
      <point x="425" y="391"/>
      <point x="425" y="409" type="qcurve"/>
      <point x="425" y="427"/>
      <point x="439" y="458"/>
      <point x="463" y="482"/>
      <point x="494" y="496"/>
      <point x="512" y="496" type="qcurve"/>
      <point x="530" y="496"/>
      <point x="561" y="482"/>
      <point x="585" y="458"/>
      <point x="599" y="427"/>
      <point x="599" y="409" type="qcurve"/>
      <point x="599" y="294" type="line"/>
      <point x="599" y="256"/>
      <point x="547" y="204"/>
      <point x="509" y="204" type="qcurve"/>
      <point x="421" y="204" type="line"/>
      <point x="413" y="99"/>
      <point x="309" y="-14"/>
      <point x="221" y="-14" type="qcurve"/>
      <point x="124" y="-14"/>
      <point x="20" y="120"/>
      <point x="20" y="242" type="qcurve"/>
    </contour>
    <contour>
      <point x="221" y="106" type="qcurve"/>
      <point x="255" y="106"/>
      <point x="296" y="164"/>
      <point x="296" y="230" type="qcurve"/>
      <point x="296" y="266" type="line"/>
      <point x="296" y="332"/>
      <point x="255" y="390"/>
      <point x="221" y="390" type="qcurve"/>
      <point x="187" y="390"/>
      <point x="146" y="332"/>
      <point x="146" y="266" type="qcurve"/>
      <point x="146" y="230" type="line"/>
      <point x="146" y="164"/>
      <point x="187" y="106"/>
    </contour>
  </outline>
</glyph>
<glyph name="uni01AF" format="1">
  <advance width="612"/>
  <unicode hex="01AF"/>
  <outline>
    <contour>
      <point x="606" y="492" type="line"/>
      <point x="606" y="454"/>
      <point x="554" y="402"/>
      <point x="516" y="402" type="qcurve"/>
      <point x="402" y="402" type="line"/>
      <point x="402" y="198" type="line"/>
      <point x="402" y="92"/>
      <point x="305" y="-14"/>
      <point x="210" y="-14" type="qcurve"/>
      <point x="115" y="-14"/>
      <point x="18" y="92"/>
      <point x="18" y="198" type="qcurve"/>
      <point x="18" y="700" type="line"/>
      <point x="150" y="700" type="line"/>
      <point x="150" y="184" type="line"/>
      <point x="150" y="149"/>
      <point x="177" y="112"/>
      <point x="210" y="112" type="qcurve"/>
      <point x="243" y="112"/>
      <point x="270" y="149"/>
      <point x="270" y="184" type="qcurve"/>
      <point x="270" y="700" type="line"/>
      <point x="402" y="700" type="line"/>
      <point x="402" y="480" type="line"/>
      <point x="501" y="480" type="line"/>
      <point x="528" y="480"/>
      <point x="528" y="510" type="qcurve"/>
      <point x="528" y="526" type="line"/>
      <point x="519" y="526" type="line"/>
      <point x="501" y="526"/>
      <point x="470" y="540"/>
      <point x="446" y="564"/>
      <point x="432" y="595"/>
      <point x="432" y="613" type="qcurve"/>
      <point x="432" y="631"/>
      <point x="446" y="662"/>
      <point x="470" y="686"/>
      <point x="501" y="700"/>
      <point x="519" y="700" type="qcurve"/>
      <point x="537" y="700"/>
      <point x="568" y="686"/>
      <point x="592" y="662"/>
      <point x="606" y="631"/>
      <point x="606" y="613" type="qcurve"/>
    </contour>
  </outline>
</glyph>
<glyph name="uni01B0" format="1">
  <advance width="612"/>
  <unicode hex="01B0"/>
  <outline>
    <contour>
      <point x="276" y="496" type="line"/>
      <point x="402" y="496" type="line"/>
      <point x="402" y="282" type="line"/>
      <point x="501" y="282" type="line"/>
      <point x="528" y="282"/>
      <point x="528" y="312" type="qcurve"/>
      <point x="528" y="322" type="line"/>
      <point x="519" y="322" type="line"/>
      <point x="501" y="322"/>
      <point x="470" y="336"/>
      <point x="446" y="360"/>
      <point x="432" y="391"/>
      <point x="432" y="409" type="qcurve"/>
      <point x="432" y="427"/>
      <point x="446" y="458"/>
      <point x="470" y="482"/>
      <point x="501" y="496"/>
      <point x="519" y="496" type="qcurve"/>
      <point x="537" y="496"/>
      <point x="568" y="482"/>
      <point x="592" y="458"/>
      <point x="606" y="427"/>
      <point x="606" y="409" type="qcurve"/>
      <point x="606" y="294" type="line"/>
      <point x="606" y="256"/>
      <point x="554" y="204"/>
      <point x="516" y="204" type="qcurve"/>
      <point x="402" y="204" type="line"/>
      <point x="402" y="0" type="line"/>
      <point x="276" y="0" type="line"/>
      <point x="276" y="48" type="line"/>
      <point x="258" y="48" type="line"/>
      <point x="249" y="21"/>
      <point x="197" y="-14"/>
      <point x="149" y="-14" type="qcurve"/>
      <point x="89" y="-14"/>
      <point x="18" y="61"/>
      <point x="18" y="138" type="qcurve"/>
      <point x="18" y="496" type="line"/>
      <point x="144" y="496" type="line"/>
      <point x="144" y="174" type="line"/>
      <point x="144" y="139"/>
      <point x="175" y="100"/>
      <point x="207" y="100" type="qcurve"/>
      <point x="246" y="100"/>
      <point x="276" y="144"/>
      <point x="276" y="180" type="qcurve"/>
    </contour>
  </outline>
</glyph>
<glyph name="uni0219" format="1">
  <advance width="612"/>
  <unicode hex="0219"/>
  <outline>
    <contour>
      <point x="405" y="-248" type="line"/>
      <point x="405" y="-286"/>
      <point x="353" y="-338"/>
      <point x="315" y="-338" type="qcurve"/>
      <point x="255" y="-338" type="line"/>
      <point x="255" y="-260" type="line"/>
      <point x="300" y="-260" type="line"/>
      <point x="327" y="-260"/>
      <point x="327" y="-230" type="qcurve"/>
      <point x="327" y="-218" type="line"/>
      <point x="318" y="-218" type="line"/>
      <point x="300" y="-218"/>
      <point x="269" y="-204"/>
      <point x="245" y="-180"/>
      <point x="231" y="-149"/>
      <point x="231" y="-131" type="qcurve"/>
      <point x="231" y="-113"/>
      <point x="245" y="-82"/>
      <point x="269" y="-58"/>
      <point x="300" y="-44"/>
      <point x="318" y="-44" type="qcurve"/>
      <point x="336" y="-44"/>
      <point x="367" y="-58"/>
      <point x="391" y="-82"/>
      <point x="405" y="-113"/>
      <point x="405" y="-131" type="qcurve"/>
    </contour>
    <component base="s"/>
  </outline>
</glyph>
<glyph name="uni021A" format="1">
  <advance width="612"/>
  <unicode hex="021A"/>
  <outline>
    <contour>
      <point x="393" y="-248" type="line"/>
      <point x="393" y="-286"/>
      <point x="341" y="-338"/>
      <point x="303" y="-338" type="qcurve"/>
      <point x="243" y="-338" type="line"/>
      <point x="243" y="-260" type="line"/>
      <point x="288" y="-260" type="line"/>
      <point x="315" y="-260"/>
      <point x="315" y="-230" type="qcurve"/>
      <point x="315" y="-218" type="line"/>
      <point x="306" y="-218" type="line"/>
      <point x="288" y="-218"/>
      <point x="257" y="-204"/>
      <point x="233" y="-180"/>
      <point x="219" y="-149"/>
      <point x="219" y="-131" type="qcurve"/>
      <point x="219" y="-113"/>
      <point x="233" y="-82"/>
      <point x="257" y="-58"/>
      <point x="288" y="-44"/>
      <point x="306" y="-44" type="qcurve"/>
      <point x="324" y="-44"/>
      <point x="355" y="-58"/>
      <point x="379" y="-82"/>
      <point x="393" y="-113"/>
      <point x="393" y="-131" type="qcurve"/>
    </contour>
    <component base="T"/>
  </outline>
</glyph>
<glyph name="uni021B" format="1">
  <advance width="612"/>
  <unicode hex="021B"/>
  <outline>
    <contour>
      <point x="385" y="-248" type="line"/>
      <point x="385" y="-286"/>
      <point x="333" y="-338"/>
      <point x="295" y="-338" type="qcurve"/>
      <point x="235" y="-338" type="line"/>
      <point x="235" y="-260" type="line"/>
      <point x="280" y="-260" type="line"/>
      <point x="307" y="-260"/>
      <point x="307" y="-230" type="qcurve"/>
      <point x="307" y="-218" type="line"/>
      <point x="298" y="-218" type="line"/>
      <point x="280" y="-218"/>
      <point x="249" y="-204"/>
      <point x="225" y="-180"/>
      <point x="211" y="-149"/>
      <point x="211" y="-131" type="qcurve"/>
      <point x="211" y="-113"/>
      <point x="225" y="-82"/>
      <point x="249" y="-58"/>
      <point x="280" y="-44"/>
      <point x="298" y="-44" type="qcurve"/>
      <point x="316" y="-44"/>
      <point x="347" y="-58"/>
      <point x="371" y="-82"/>
      <point x="385" y="-113"/>
      <point x="385" y="-131" type="qcurve"/>
    </contour>
    <component base="t"/>
  </outline>
</glyph>
<glyph name="uni0237" format="1">
  <advance width="612"/>
  <unicode hex="0237"/>
  <outline>
    <contour>
      <point x="132" y="496" type="line"/>
      <point x="450" y="496" type="line"/>
      <point x="450" y="-98" type="line"/>
      <point x="450" y="-150"/>
      <point x="394" y="-200"/>
      <point x="349" y="-200" type="qcurve"/>
      <point x="114" y="-200" type="line"/>
      <point x="114" y="-80" type="line"/>
      <point x="294" y="-80" type="line"/>
      <point x="324" y="-80"/>
      <point x="324" y="-47" type="qcurve"/>
      <point x="324" y="376" type="line"/>
      <point x="132" y="376" type="line"/>
    </contour>
  </outline>
</glyph>
<glyph name="uni0259" format="1">
  <advance width="612"/>
  <unicode hex="0259"/>
  <outline>
    <contour>
      <point x="424" y="289" type="line"/>
      <point x="423" y="311"/>
      <point x="404" y="348"/>
      <point x="371" y="375"/>
      <point x="328" y="390"/>
      <point x="304" y="390" type="qcurve"/>
      <point x="260" y="390"/>
      <point x="206" y="354"/>
      <point x="192" y="330" type="qcurve"/>
      <point x="98" y="402" type="line"/>
      <point x="111" y="423"/>
      <point x="149" y="462"/>
      <point x="200" y="492"/>
      <point x="264" y="510"/>
      <point x="302" y="510" type="qcurve"/>
      <point x="356" y="510"/>
      <point x="448" y="475"/>
      <point x="516" y="407"/>
      <point x="554" y="309"/>
      <point x="554" y="246" type="qcurve"/>
      <point x="554" y="240" type="line"/>
      <point x="554" y="183"/>
      <point x="515" y="89"/>
      <point x="447" y="23"/>
      <point x="356" y="-14"/>
      <point x="304" y="-14" type="qcurve"/>
      <point x="240" y="-14"/>
      <point x="148" y="30"/>
      <point x="88" y="99"/>
      <point x="60" y="183"/>
      <point x="60" y="222" type="qcurve"/>
      <point x="60" y="289" type="line"/>
    </contour>
    <contour>
      <point x="305" y="100" type="qcurve"/>
      <point x="353" y="100"/>
      <point x="413" y="149"/>
      <point x="422" y="181" type="qcurve"/>
      <point x="188" y="181" type="line"/>
      <point x="194" y="146"/>
      <point x="257" y="100"/>
    </contour>
  </outline>
</glyph>
<glyph name="uni0265" format="1">
  <advance width="612"/>
  <unicode hex="0265"/>
  <outline>
    <contour>
      <point x="416" y="496" type="line"/>
      <point x="542" y="496" type="line"/>
      <point x="542" y="-200" type="line"/>
      <point x="416" y="-200" type="line"/>
      <point x="416" y="80" type="line"/>
      <point x="398" y="80" type="line"/>
      <point x="379" y="35"/>
      <point x="305" y="-14"/>
      <point x="251" y="-14" type="qcurve"/>
      <point x="214" y="-14"/>
      <point x="152" y="10"/>
      <point x="106" y="58"/>
      <point x="80" y="133"/>
      <point x="80" y="184" type="qcurve"/>
      <point x="80" y="496" type="line"/>
      <point x="206" y="496" type="line"/>
      <point x="206" y="214" type="line"/>
      <point x="206" y="161"/>
      <point x="257" y="100"/>
      <point x="305" y="100" type="qcurve"/>
      <point x="361" y="100"/>
      <point x="416" y="175"/>
      <point x="416" y="238" type="qcurve"/>
    </contour>
  </outline>
</glyph>
<glyph name="uni028E" format="1">
  <advance width="612"/>
  <unicode hex="028E"/>
  <outline>
    <contour>
      <point x="575" y="0" type="line"/>
      <point x="439" y="0" type="line"/>
      <point x="315" y="400" type="line"/>
      <point x="297" y="400" type="line"/>
      <point x="173" y="0" type="line"/>
      <point x="37" y="0" type="line"/>
      <point x="201" y="496" type="line"/>
      <point x="243" y="496" type="line"/>
      <point x="243" y="610" type="line"/>
      <point x="243" y="651"/>
      <point x="292" y="700"/>
      <point x="333" y="700" type="qcurve"/>
      <point x="537" y="700" type="line"/>
      <point x="537" y="580" type="line"/>
      <point x="396" y="580" type="line"/>
      <point x="369" y="580"/>
      <point x="369" y="550" type="qcurve"/>
      <point x="369" y="496" type="line"/>
      <point x="411" y="496" type="line"/>
    </contour>
  </outline>
</glyph>
<glyph name="uni029E" format="1">
  <advance width="612"/>
  <unicode hex="029E"/>
  <outline>
    <contour>
      <point x="379" y="182" type="line"/>
      <point x="355" y="182" type="line"/>
      <point x="229" y="0" type="line"/>
      <point x="91" y="0" type="line"/>
      <point x="91" y="6" type="line"/>
      <point x="243" y="230" type="line"/>
      <point x="243" y="254" type="line"/>
      <point x="76" y="490" type="line"/>
      <point x="76" y="496" type="line"/>
      <point x="220" y="496" type="line"/>
      <point x="353" y="302" type="line"/>
      <point x="379" y="302" type="line"/>
      <point x="379" y="496" type="line"/>
      <point x="505" y="496" type="line"/>
      <point x="505" y="-200" type="line"/>
      <point x="379" y="-200" type="line"/>
    </contour>
  </outline>
</glyph>
<glyph name="dotaccent" format="1">
  <advance width="612"/>
  <unicode hex="02D9"/>
  <outline>
    <contour>
      <point x="401" y="643" type="qcurve"/>
      <point x="401" y="623"/>
      <point x="386" y="588"/>
      <point x="360" y="563"/>
      <point x="325" y="548"/>
      <point x="306" y="548" type="qcurve"/>
      <point x="286" y="548"/>
      <point x="252" y="563"/>
      <point x="226" y="588"/>
      <point x="211" y="623"/>
      <point x="211" y="643" type="qcurve"/>
      <point x="211" y="663"/>
      <point x="226" y="698"/>
      <point x="252" y="723"/>
      <point x="286" y="738"/>
      <point x="306" y="738" type="qcurve"/>
      <point x="325" y="738"/>
      <point x="360" y="723"/>
      <point x="386" y="698"/>
      <point x="401" y="663"/>
    </contour>
  </outline>
</glyph>
<glyph name="ogonek" format="1">
  <advance width="612"/>
  <unicode hex="02DB"/>
  <outline>
    <contour>
      <point x="338" y="30" type="line"/>
      <point x="318" y="-56" type="line"/>
      <point x="317" y="-61"/>
      <point x="317" y="-64" type="qcurve"/>
      <point x="317" y="-86"/>
      <point x="340" y="-86" type="qcurve"/>
      <point x="386" y="-86" type="line"/>
      <point x="386" y="-170" type="line"/>
      <point x="306" y="-170" type="line"/>
      <point x="276" y="-170"/>
      <point x="226" y="-132"/>
      <point x="226" y="-95" type="qcurve"/>
      <point x="226" y="-86"/>
      <point x="229" y="-72" type="qcurve"/>
      <point x="252" y="30" type="line"/>
    </contour>
  </outline>
</glyph>
<glyph name="uni031B" format="1">
  <advance width="612"/>
  <unicode hex="031B"/>
  <outline>
    <contour>
      <point x="408" y="492" type="line"/>
      <point x="408" y="454"/>
      <point x="356" y="402"/>
      <point x="318" y="402" type="qcurve"/>
      <point x="204" y="402" type="line"/>
      <point x="204" y="480" type="line"/>
      <point x="303" y="480" type="line"/>
      <point x="330" y="480"/>
      <point x="330" y="510" type="qcurve"/>
      <point x="330" y="526" type="line"/>
      <point x="321" y="526" type="line"/>
      <point x="303" y="526"/>
      <point x="272" y="540"/>
      <point x="248" y="564"/>
      <point x="234" y="595"/>
      <point x="234" y="613" type="qcurve"/>
      <point x="234" y="631"/>
      <point x="248" y="662"/>
      <point x="272" y="686"/>
      <point x="303" y="700"/>
      <point x="321" y="700" type="qcurve"/>
      <point x="339" y="700"/>
      <point x="370" y="686"/>
      <point x="394" y="662"/>
      <point x="408" y="631"/>
      <point x="408" y="613" type="qcurve"/>
    </contour>
  </outline>
</glyph>
<glyph name="pi" format="1">
  <advance width="612"/>
  <unicode hex="03C0"/>
  <outline>
    <contour>
      <point x="128" y="0" type="line"/>
      <point x="128" y="376" type="line"/>
      <point x="50" y="376" type="line"/>
      <point x="50" y="496" type="line"/>
      <point x="564" y="496" type="line"/>
      <point x="564" y="376" type="line"/>
      <point x="486" y="376" type="line"/>
      <point x="486" y="150" type="line"/>
      <point x="486" y="120"/>
      <point x="513" y="120" type="qcurve"/>
      <point x="564" y="120" type="line"/>
      <point x="564" y="0" type="line"/>
      <point x="456" y="0" type="line"/>
      <point x="414" y="0"/>
      <point x="360" y="54"/>
      <point x="360" y="96" type="qcurve"/>
      <point x="360" y="376" type="line"/>
      <point x="254" y="376" type="line"/>
      <point x="254" y="0" type="line"/>
    </contour>
  </outline>
</glyph>
<glyph name="uni1E9E" format="1">
  <advance width="612"/>
  <unicode hex="1E9E"/>
  <outline>
    <contour>
      <point x="534" y="700" type="line"/>
      <point x="534" y="472" type="line"/>
      <point x="378" y="418" type="line"/>
      <point x="378" y="400" type="line"/>
      <point x="396" y="400" type="line"/>
      <point x="437" y="400"/>
      <point x="508" y="373"/>
      <point x="559" y="324"/>
      <point x="588" y="253"/>
      <point x="588" y="210" type="qcurve"/>
      <point x="588" y="204" type="line"/>
      <point x="588" y="160"/>
      <point x="559" y="86"/>
      <point x="503" y="31"/>
      <point x="423" y="0"/>
      <point x="371" y="0" type="qcurve"/>
      <point x="282" y="0" type="line"/>
      <point x="282" y="126" type="line"/>
      <point x="366" y="126" type="line"/>
      <point x="410" y="126"/>
      <point x="456" y="170"/>
      <point x="456" y="207" type="qcurve"/>
      <point x="456" y="244"/>
      <point x="410" y="288"/>
      <point x="366" y="288" type="qcurve"/>
      <point x="282" y="288" type="line"/>
      <point x="282" y="502" type="line"/>
      <point x="438" y="556" type="line"/>
      <point x="438" y="574" type="line"/>
      <point x="320" y="574" type="line"/>
      <point x="278" y="574"/>
      <point x="226" y="538"/>
      <point x="226" y="490" type="qcurve"/>
      <point x="226" y="0" type="line"/>
      <point x="94" y="0" type="line"/>
      <point x="94" y="376" type="line"/>
      <point x="34" y="376" type="line"/>
      <point x="34" y="496" type="line"/>
      <point x="94" y="496" type="line"/>
      <point x="94" y="500" type="line"/>
      <point x="94" y="549"/>
      <point x="130" y="624"/>
      <point x="190" y="675"/>
      <point x="270" y="700"/>
      <point x="314" y="700" type="qcurve"/>
    </contour>
  </outline>
</glyph>
<glyph name="uni1EF5" format="1">
  <advance width="612"/>
  <unicode hex="1EF5"/>
  <outline>
    <contour>
      <point x="414" y="496" type="line"/>
      <point x="540" y="496" type="line"/>
      <point x="540" y="-122" type="line"/>
      <point x="540" y="-156"/>
      <point x="497" y="-200"/>
      <point x="463" y="-200" type="qcurve"/>
      <point x="286" y="-200" type="line"/>
      <point x="286" y="-80" type="line"/>
      <point x="387" y="-80" type="line"/>
      <point x="414" y="-80"/>
      <point x="414" y="-50" type="qcurve"/>
      <point x="414" y="72" type="line"/>
      <point x="396" y="72" type="line"/>
      <point x="363" y="-14"/>
      <point x="254" y="-14" type="qcurve"/>
      <point x="217" y="-14"/>
      <point x="153" y="10"/>
      <point x="105" y="60"/>
      <point x="78" y="135"/>
      <point x="78" y="186" type="qcurve"/>
      <point x="78" y="496" type="line"/>
      <point x="204" y="496" type="line"/>
      <point x="204" y="212" type="line"/>
      <point x="204" y="159"/>
      <point x="254" y="100"/>
      <point x="304" y="100" type="qcurve"/>
      <point x="361" y="100"/>
      <point x="414" y="173"/>
      <point x="414" y="236" type="qcurve"/>
    </contour>
    <component base="dotaccent" xOffset="-149" yOffset="-783"/>
  </outline>
</glyph>
<glyph name="quotedblright" format="1">
  <advance width="612"/>
  <unicode hex="201D"/>
  <outline>
    <contour>
      <point x="98" y="620" type="qcurve"/>
      <point x="98" y="639"/>
      <point x="113" y="674"/>
      <point x="139" y="699"/>
      <point x="173" y="714"/>
      <point x="193" y="714" type="qcurve"/>
      <point x="212" y="714"/>
      <point x="247" y="699"/>
      <point x="273" y="674"/>
      <point x="288" y="639"/>
      <point x="288" y="620" type="qcurve"/>
      <point x="288" y="498" type="line"/>
      <point x="288" y="460"/>
      <point x="237" y="408"/>
      <point x="199" y="408" type="qcurve"/>
      <point x="135" y="408" type="line"/>
      <point x="135" y="486" type="line"/>
      <point x="183" y="486" type="line"/>
      <point x="210" y="486"/>
      <point x="210" y="516" type="qcurve"/>
      <point x="210" y="528" type="line"/>
      <point x="202" y="525"/>
      <point x="193" y="525" type="qcurve"/>
      <point x="173" y="525"/>
      <point x="139" y="540"/>
      <point x="113" y="566"/>
      <point x="98" y="600"/>
    </contour>
    <contour>
      <point x="324" y="620" type="qcurve"/>
      <point x="324" y="639"/>
      <point x="339" y="674"/>
      <point x="365" y="699"/>
      <point x="399" y="714"/>
      <point x="419" y="714" type="qcurve"/>
      <point x="438" y="714"/>
      <point x="473" y="699"/>
      <point x="499" y="674"/>
      <point x="514" y="639"/>
      <point x="514" y="620" type="qcurve"/>
      <point x="514" y="498" type="line"/>
      <point x="514" y="460"/>
      <point x="463" y="408"/>
      <point x="425" y="408" type="qcurve"/>
      <point x="361" y="408" type="line"/>
      <point x="361" y="486" type="line"/>
      <point x="409" y="486" type="line"/>
      <point x="436" y="486"/>
      <point x="436" y="516" type="qcurve"/>
      <point x="436" y="528" type="line"/>
      <point x="428" y="525"/>
      <point x="419" y="525" type="qcurve"/>
      <point x="399" y="525"/>
      <point x="365" y="540"/>
      <point x="339" y="566"/>
      <point x="324" y="600"/>
    </contour>
  </outline>
</glyph>
<glyph name="quotedblbase" format="1">
  <advance width="612"/>
  <unicode hex="201E"/>
  <outline>
    <contour>
      <point x="98" y="95" type="qcurve"/>
      <point x="98" y="114"/>
      <point x="113" y="149"/>
      <point x="139" y="174"/>
      <point x="173" y="189"/>
      <point x="193" y="189" type="qcurve"/>
      <point x="212" y="189"/>
      <point x="247" y="174"/>
      <point x="273" y="149"/>
      <point x="288" y="114"/>
      <point x="288" y="95" type="qcurve"/>
      <point x="288" y="-27" type="line"/>
      <point x="288" y="-65"/>
      <point x="237" y="-117"/>
      <point x="199" y="-117" type="qcurve"/>
      <point x="135" y="-117" type="line"/>
      <point x="135" y="-39" type="line"/>
      <point x="183" y="-39" type="line"/>
      <point x="210" y="-39"/>
      <point x="210" y="-9" type="qcurve"/>
      <point x="210" y="3" type="line"/>
      <point x="202" y="0"/>
      <point x="193" y="0" type="qcurve"/>
      <point x="173" y="0"/>
      <point x="139" y="15"/>
      <point x="113" y="41"/>
      <point x="98" y="75"/>
    </contour>
    <contour>
      <point x="324" y="95" type="qcurve"/>
      <point x="324" y="114"/>
      <point x="339" y="149"/>
      <point x="365" y="174"/>
      <point x="399" y="189"/>
      <point x="419" y="189" type="qcurve"/>
      <point x="438" y="189"/>
      <point x="473" y="174"/>
      <point x="499" y="149"/>
      <point x="514" y="114"/>
      <point x="514" y="95" type="qcurve"/>
      <point x="514" y="-27" type="line"/>
      <point x="514" y="-65"/>
      <point x="463" y="-117"/>
      <point x="425" y="-117" type="qcurve"/>
      <point x="361" y="-117" type="line"/>
      <point x="361" y="-39" type="line"/>
      <point x="409" y="-39" type="line"/>
      <point x="436" y="-39"/>
      <point x="436" y="-9" type="qcurve"/>
      <point x="436" y="3" type="line"/>
      <point x="428" y="0"/>
      <point x="419" y="0" type="qcurve"/>
      <point x="399" y="0"/>
      <point x="365" y="15"/>
      <point x="339" y="41"/>
      <point x="324" y="75"/>
    </contour>
  </outline>
</glyph>
<glyph name="daggerdbl" format="1">
  <advance width="612"/>
  <unicode hex="2021"/>
  <outline>
    <contour>
      <point x="144" y="434" type="line"/>
      <point x="252" y="434" type="line"/>
      <point x="252" y="498" type="line"/>
      <point x="144" y="498" type="line"/>
      <point x="144" y="604" type="line"/>
      <point x="252" y="604" type="line"/>
      <point x="252" y="714" type="line"/>
      <point x="360" y="714" type="line"/>
      <point x="360" y="604" type="line"/>
      <point x="468" y="604" type="line"/>
      <point x="468" y="498" type="line"/>
      <point x="360" y="498" type="line"/>
      <point x="360" y="434" type="line"/>
      <point x="468" y="434" type="line"/>
      <point x="468" y="328" type="line"/>
      <point x="360" y="328" type="line"/>
      <point x="360" y="218" type="line"/>
      <point x="252" y="218" type="line"/>
      <point x="252" y="328" type="line"/>
      <point x="144" y="328" type="line"/>
    </contour>
  </outline>
</glyph>
<glyph name="bullet" format="1">
  <advance width="612"/>
  <unicode hex="2022"/>
  <outline>
    <contour>
      <point x="162" y="350" type="qcurve"/>
      <point x="162" y="380"/>
      <point x="185" y="432"/>
      <point x="224" y="471"/>
      <point x="276" y="494"/>
      <point x="306" y="494" type="qcurve"/>
      <point x="336" y="494"/>
      <point x="388" y="471"/>
      <point x="427" y="432"/>
      <point x="450" y="380"/>
      <point x="450" y="350" type="qcurve"/>
      <point x="450" y="320"/>
      <point x="427" y="268"/>
      <point x="388" y="229"/>
      <point x="336" y="206"/>
      <point x="306" y="206" type="qcurve"/>
      <point x="276" y="206"/>
      <point x="224" y="229"/>
      <point x="185" y="268"/>
      <point x="162" y="320"/>
    </contour>
  </outline>
</glyph>
<glyph name="ellipsis" format="1">
  <advance width="612"/>
  <unicode hex="2026"/>
  <outline>
    <contour>
      <point x="591" y="81" type="qcurve"/>
      <point x="591" y="61"/>
      <point x="576" y="26"/>
      <point x="550" y="1"/>
      <point x="515" y="-14"/>
      <point x="496" y="-14" type="qcurve"/>
      <point x="476" y="-14"/>
      <point x="442" y="1"/>
      <point x="416" y="26"/>
      <point x="401" y="61"/>
      <point x="401" y="81" type="qcurve"/>
      <point x="401" y="101"/>
      <point x="416" y="136"/>
      <point x="442" y="161"/>
      <point x="476" y="176"/>
      <point x="496" y="176" type="qcurve"/>
      <point x="515" y="176"/>
      <point x="550" y="161"/>
      <point x="576" y="136"/>
      <point x="591" y="101"/>
    </contour>
    <contour>
      <point x="401" y="81" type="qcurve"/>
      <point x="401" y="61"/>
      <point x="386" y="26"/>
      <point x="360" y="1"/>
      <point x="325" y="-14"/>
      <point x="306" y="-14" type="qcurve"/>
      <point x="286" y="-14"/>
      <point x="252" y="1"/>
      <point x="226" y="26"/>
      <point x="211" y="61"/>
      <point x="211" y="81" type="qcurve"/>
      <point x="211" y="61"/>
      <point x="196" y="26"/>
      <point x="170" y="1"/>
      <point x="135" y="-14"/>
      <point x="116" y="-14" type="qcurve"/>
      <point x="96" y="-14"/>
      <point x="62" y="1"/>
      <point x="36" y="26"/>
      <point x="21" y="61"/>
      <point x="21" y="81" type="qcurve"/>
      <point x="21" y="101"/>
      <point x="36" y="136"/>
      <point x="62" y="161"/>
      <point x="96" y="176"/>
      <point x="116" y="176" type="qcurve"/>
      <point x="135" y="176"/>
      <point x="170" y="161"/>
      <point x="196" y="136"/>
      <point x="211" y="101"/>
      <point x="211" y="81" type="qcurve"/>
      <point x="211" y="101"/>
      <point x="226" y="136"/>
      <point x="252" y="161"/>
      <point x="286" y="176"/>
      <point x="306" y="176" type="qcurve"/>
      <point x="325" y="176"/>
      <point x="360" y="161"/>
      <point x="386" y="136"/>
      <point x="401" y="101"/>
    </contour>
  </outline>
</glyph>
<glyph name="perthousand" format="1">
  <advance width="612"/>
  <unicode hex="2030"/>
  <outline>
    <contour>
      <point x="324" y="562" type="qcurve"/>
      <point x="324" y="526"/>
      <point x="298" y="471"/>
      <point x="255" y="432"/>
      <point x="200" y="412"/>
      <point x="171" y="412" type="qcurve"/>
      <point x="142" y="412"/>
      <point x="87" y="432"/>
      <point x="44" y="471"/>
      <point x="18" y="526"/>
      <point x="18" y="562" type="qcurve"/>
      <point x="18" y="598"/>
      <point x="44" y="653"/>
      <point x="87" y="692"/>
      <point x="142" y="712"/>
      <point x="171" y="712" type="qcurve"/>
      <point x="200" y="712"/>
      <point x="255" y="692"/>
      <point x="298" y="653"/>
      <point x="324" y="598"/>
    </contour>
    <contour>
      <point x="171" y="496" type="qcurve"/>
      <point x="196" y="496"/>
      <point x="234" y="530"/>
      <point x="234" y="562" type="qcurve"/>
      <point x="234" y="594"/>
      <point x="196" y="628"/>
      <point x="171" y="628" type="qcurve"/>
      <point x="146" y="628"/>
      <point x="108" y="594"/>
      <point x="108" y="562" type="qcurve"/>
      <point x="108" y="530"/>
      <point x="146" y="496"/>
    </contour>
    <contour>
      <point x="243" y="180" type="line"/>
      <point x="243" y="228"/>
      <point x="300" y="288"/>
      <point x="351" y="288" type="qcurve"/>
      <point x="371" y="288"/>
      <point x="402" y="275"/>
      <point x="413" y="264" type="qcurve"/>
      <point x="425" y="264" type="line"/>
      <point x="436" y="275"/>
      <point x="467" y="288"/>
      <point x="487" y="288" type="qcurve"/>
      <point x="538" y="288"/>
      <point x="594" y="228"/>
      <point x="594" y="180" type="qcurve"/>
      <point x="594" y="96" type="line"/>
      <point x="594" y="48"/>
      <point x="538" y="-12"/>
      <point x="487" y="-12" type="qcurve"/>
      <point x="467" y="-12"/>
      <point x="436" y="1"/>
      <point x="425" y="12" type="qcurve"/>
      <point x="413" y="12" type="line"/>
      <point x="402" y="1"/>
      <point x="371" y="-12"/>
      <point x="351" y="-12" type="qcurve"/>
      <point x="300" y="-12"/>
      <point x="243" y="48"/>
      <point x="243" y="96" type="qcurve"/>
    </contour>
    <contour>
      <point x="353" y="69" type="qcurve"/>
      <point x="362" y="69"/>
      <point x="375" y="82"/>
      <point x="375" y="96" type="qcurve"/>
      <point x="375" y="180" type="line"/>
      <point x="375" y="194"/>
      <point x="362" y="207"/>
      <point x="353" y="207" type="qcurve"/>
      <point x="344" y="207"/>
      <point x="330" y="194"/>
      <point x="330" y="180" type="qcurve"/>
      <point x="330" y="96" type="line"/>
      <point x="330" y="82"/>
      <point x="344" y="69"/>
    </contour>
    <contour>
      <point x="485" y="69" type="qcurve"/>
      <point x="494" y="69"/>
      <point x="507" y="82"/>
      <point x="507" y="96" type="qcurve"/>
      <point x="507" y="180" type="line"/>
      <point x="507" y="194"/>
      <point x="494" y="207"/>
      <point x="485" y="207" type="qcurve"/>
      <point x="476" y="207"/>
      <point x="462" y="194"/>
      <point x="462" y="180" type="qcurve"/>
      <point x="462" y="96" type="line"/>
      <point x="462" y="82"/>
      <point x="476" y="69"/>
    </contour>
    <component base="fraction" xOffset="-31"/>
  </outline>
</glyph>
<glyph name="uni2032" format="1">
  <advance width="612"/>
  <unicode hex="2032"/>
  <outline>
    <contour>
      <point x="259" y="543" type="line"/>
      <point x="241" y="556"/>
      <point x="220" y="597"/>
      <point x="220" y="620" type="qcurve"/>
      <point x="220" y="639"/>
      <point x="235" y="674"/>
      <point x="261" y="699"/>
      <point x="295" y="714"/>
      <point x="315" y="714" type="qcurve"/>
      <point x="334" y="714"/>
      <point x="369" y="699"/>
      <point x="394" y="674"/>
      <point x="409" y="639"/>
      <point x="409" y="620" type="qcurve"/>
      <point x="409" y="587"/>
      <point x="367" y="533"/>
      <point x="335" y="526" type="qcurve"/>
      <point x="309" y="404" type="line"/>
      <point x="233" y="420" type="line"/>
    </contour>
  </outline>
</glyph>
<glyph name="fraction" format="1">
  <advance width="612"/>
  <unicode hex="2044"/>
  <outline>
    <contour>
      <point x="521" y="510" type="line"/>
      <point x="562" y="432" type="line"/>
      <point x="90" y="190" type="line"/>
      <point x="49" y="268" type="line"/>
    </contour>
  </outline>
</glyph>
<glyph name="uni2076" format="1">
  <advance width="612"/>
  <unicode hex="2076"/>
  <outline>
    <contour>
      <point x="330" y="614" type="line"/>
      <point x="329" y="623"/>
      <point x="317" y="636"/>
      <point x="304" y="636" type="qcurve"/>
      <point x="291" y="636"/>
      <point x="278" y="621"/>
      <point x="278" y="610" type="qcurve"/>
      <point x="278" y="570" type="line"/>
      <point x="287" y="570" type="line"/>
      <point x="301" y="594"/>
      <point x="334" y="594" type="qcurve"/>
      <point x="367" y="594"/>
      <point x="412" y="549"/>
      <point x="412" y="508" type="qcurve"/>
      <point x="412" y="461"/>
      <point x="351" y="406"/>
      <point x="306" y="406" type="qcurve"/>
      <point x="263" y="406"/>
      <point x="200" y="459"/>
      <point x="200" y="506" type="qcurve"/>
      <point x="200" y="604" type="line"/>
      <point x="200" y="628"/>
      <point x="217" y="666"/>
      <point x="246" y="692"/>
      <point x="284" y="706"/>
      <point x="304" y="706" type="qcurve"/>
      <point x="348" y="706"/>
      <point x="406" y="656"/>
      <point x="408" y="614" type="qcurve"/>
    </contour>
    <contour>
      <point x="306" y="522" type="qcurve"/>
      <point x="294" y="522"/>
      <point x="278" y="511"/>
      <point x="278" y="500" type="qcurve"/>
      <point x="278" y="489"/>
      <point x="294" y="478"/>
      <point x="306" y="478" type="qcurve"/>
      <point x="318" y="478"/>
      <point x="334" y="489"/>
      <point x="334" y="500" type="qcurve"/>
      <point x="334" y="511"/>
      <point x="318" y="522"/>
    </contour>
  </outline>
</glyph>
<glyph name="uni2077" format="1">
  <advance width="612"/>
  <unicode hex="2077"/>
  <outline>
    <contour>
      <point x="217" y="700" type="line"/>
      <point x="415" y="700" type="line"/>
      <point x="415" y="595" type="line"/>
      <point x="329" y="463" type="line"/>
      <point x="321" y="452"/>
      <point x="313" y="435"/>
      <point x="313" y="424" type="qcurve"/>
      <point x="313" y="412" type="line"/>
      <point x="233" y="412" type="line"/>
      <point x="233" y="427" type="line"/>
      <point x="233" y="443"/>
      <point x="246" y="468"/>
      <point x="258" y="486" type="qcurve"/>
      <point x="346" y="619" type="line"/>
      <point x="346" y="628" type="line"/>
      <point x="217" y="628" type="line"/>
    </contour>
  </outline>
</glyph>
<glyph name="uni2078" format="1">
  <advance width="612"/>
  <unicode hex="2078"/>
  <outline>
    <contour>
      <point x="306" y="406" type="qcurve"/>
      <point x="286" y="406"/>
      <point x="248" y="416"/>
      <point x="218" y="437"/>
      <point x="200" y="469"/>
      <point x="200" y="492" type="qcurve"/>
      <point x="200" y="521"/>
      <point x="230" y="552"/>
      <point x="247" y="557" type="qcurve"/>
      <point x="247" y="565" type="line"/>
      <point x="233" y="570"/>
      <point x="206" y="598"/>
      <point x="206" y="627" type="qcurve"/>
      <point x="206" y="663"/>
      <point x="264" y="706"/>
      <point x="306" y="706" type="qcurve"/>
      <point x="348" y="706"/>
      <point x="406" y="663"/>
      <point x="406" y="627" type="qcurve"/>
      <point x="406" y="598"/>
      <point x="379" y="570"/>
      <point x="365" y="565" type="qcurve"/>
      <point x="365" y="557" type="line"/>
      <point x="382" y="552"/>
      <point x="412" y="521"/>
      <point x="412" y="492" type="qcurve"/>
      <point x="412" y="469"/>
      <point x="393" y="437"/>
      <point x="363" y="416"/>
      <point x="325" y="406"/>
    </contour>
    <contour>
      <point x="306" y="478" type="qcurve"/>
      <point x="334" y="478"/>
      <point x="334" y="502" type="qcurve"/>
      <point x="334" y="526"/>
      <point x="306" y="526" type="qcurve"/>
      <point x="278" y="526"/>
      <point x="278" y="502" type="qcurve"/>
      <point x="278" y="478"/>
    </contour>
    <contour>
      <point x="306" y="636" type="qcurve"/>
      <point x="297" y="636"/>
      <point x="284" y="625"/>
      <point x="284" y="616" type="qcurve"/>
      <point x="284" y="607"/>
      <point x="297" y="596"/>
      <point x="306" y="596" type="qcurve"/>
      <point x="315" y="596"/>
      <point x="328" y="607"/>
      <point x="328" y="616" type="qcurve"/>
      <point x="328" y="625"/>
      <point x="315" y="636"/>
    </contour>
  </outline>
</glyph>
<glyph name="uni2079" format="1">
  <advance width="612"/>
  <unicode hex="2079"/>
  <outline>
    <contour>
      <point x="282" y="496" type="line"/>
      <point x="282" y="476"/>
      <point x="308" y="476" type="qcurve"/>
      <point x="322" y="476"/>
      <point x="334" y="493"/>
      <point x="334" y="504" type="qcurve"/>
      <point x="334" y="536" type="line"/>
      <point x="325" y="536" type="line"/>
      <point x="320" y="527"/>
      <point x="299" y="516"/>
      <point x="281" y="516" type="qcurve"/>
      <point x="245" y="516"/>
      <point x="200" y="567"/>
      <point x="200" y="606" type="qcurve"/>
      <point x="200" y="653"/>
      <point x="259" y="706"/>
      <point x="306" y="706" type="qcurve"/>
      <point x="351" y="706"/>
      <point x="412" y="653"/>
      <point x="412" y="606" type="qcurve"/>
      <point x="412" y="508" type="line"/>
      <point x="412" y="484"/>
      <point x="395" y="446"/>
      <point x="366" y="420"/>
      <point x="328" y="406"/>
      <point x="308" y="406" type="qcurve"/>
      <point x="264" y="406"/>
      <point x="204" y="454"/>
      <point x="204" y="496" type="qcurve"/>
    </contour>
    <contour>
      <point x="306" y="586" type="qcurve"/>
      <point x="318" y="586"/>
      <point x="334" y="599"/>
      <point x="334" y="610" type="qcurve"/>
      <point x="334" y="621"/>
      <point x="318" y="634"/>
      <point x="306" y="634" type="qcurve"/>
      <point x="294" y="634"/>
      <point x="278" y="621"/>
      <point x="278" y="610" type="qcurve"/>
      <point x="278" y="599"/>
      <point x="294" y="586"/>
    </contour>
  </outline>
</glyph>
<glyph name="uni207D" format="1">
  <advance width="612"/>
  <unicode hex="207D"/>
  <outline>
    <contour>
      <point x="413" y="375" type="line"/>
      <point x="413" y="303" type="line"/>
      <point x="377" y="303" type="line"/>
      <point x="338" y="303"/>
      <point x="273" y="329"/>
      <point x="225" y="377"/>
      <point x="199" y="446"/>
      <point x="199" y="490" type="qcurve"/>
      <point x="199" y="622" type="line"/>
      <point x="199" y="665"/>
      <point x="225" y="735"/>
      <point x="273" y="783"/>
      <point x="338" y="809"/>
      <point x="377" y="809" type="qcurve"/>
      <point x="413" y="809" type="line"/>
      <point x="413" y="737" type="line"/>
      <point x="381" y="737" type="line"/>
      <point x="331" y="737"/>
      <point x="271" y="674"/>
      <point x="271" y="624" type="qcurve"/>
      <point x="271" y="488" type="line"/>
      <point x="271" y="438"/>
      <point x="331" y="375"/>
      <point x="381" y="375" type="qcurve"/>
    </contour>
  </outline>
</glyph>
<glyph name="uni207F" format="1">
  <advance width="612"/>
  <unicode hex="207F"/>
  <outline>
    <contour>
      <point x="259" y="412" type="line"/>
      <point x="181" y="412" type="line"/>
      <point x="181" y="700" type="line"/>
      <point x="259" y="700" type="line"/>
      <point x="259" y="661" type="line"/>
      <point x="265" y="661" type="line"/>
      <point x="274" y="680"/>
      <point x="314" y="706"/>
      <point x="347" y="706" type="qcurve"/>
      <point x="395" y="706"/>
      <point x="445" y="645"/>
      <point x="445" y="598" type="qcurve"/>
      <point x="445" y="412" type="line"/>
      <point x="367" y="412" type="line"/>
      <point x="367" y="574" type="line"/>
      <point x="367" y="604"/>
      <point x="337" y="634"/>
      <point x="313" y="634" type="qcurve"/>
      <point x="289" y="634"/>
      <point x="259" y="604"/>
      <point x="259" y="572" type="qcurve"/>
    </contour>
  </outline>
</glyph>
<glyph name="uni208D" format="1">
  <advance width="612"/>
  <unicode hex="208D"/>
  <outline>
    <contour>
      <point x="413" y="-237" type="line"/>
      <point x="413" y="-309" type="line"/>
      <point x="377" y="-309" type="line"/>
      <point x="338" y="-309"/>
      <point x="273" y="-283"/>
      <point x="225" y="-235"/>
      <point x="199" y="-166"/>
      <point x="199" y="-122" type="qcurve"/>
      <point x="199" y="10" type="line"/>
      <point x="199" y="53"/>
      <point x="225" y="123"/>
      <point x="273" y="171"/>
      <point x="338" y="197"/>
      <point x="377" y="197" type="qcurve"/>
      <point x="413" y="197" type="line"/>
      <point x="413" y="125" type="line"/>
      <point x="381" y="125" type="line"/>
      <point x="331" y="125"/>
      <point x="271" y="62"/>
      <point x="271" y="12" type="qcurve"/>
      <point x="271" y="-124" type="line"/>
      <point x="271" y="-174"/>
      <point x="331" y="-237"/>
      <point x="381" y="-237" type="qcurve"/>
    </contour>
  </outline>
</glyph>
<glyph name="uni208E" format="1">
  <advance width="612"/>
  <unicode hex="208E"/>
  <outline>
    <contour>
      <point x="231" y="-237" type="line"/>
      <point x="281" y="-237"/>
      <point x="341" y="-174"/>
      <point x="341" y="-124" type="qcurve"/>
      <point x="341" y="12" type="line"/>
      <point x="341" y="62"/>
      <point x="281" y="125"/>
      <point x="231" y="125" type="qcurve"/>
      <point x="199" y="125" type="line"/>
      <point x="199" y="197" type="line"/>
      <point x="235" y="197" type="line"/>
      <point x="274" y="197"/>
      <point x="339" y="171"/>
      <point x="387" y="123"/>
      <point x="413" y="53"/>
      <point x="413" y="10" type="qcurve"/>
      <point x="413" y="-122" type="line"/>
      <point x="413" y="-166"/>
      <point x="387" y="-235"/>
      <point x="339" y="-283"/>
      <point x="274" y="-309"/>
      <point x="235" y="-309" type="qcurve"/>
      <point x="199" y="-309" type="line"/>
      <point x="199" y="-237" type="line"/>
    </contour>
  </outline>
</glyph>
<glyph name="Euro" format="1">
  <advance width="612"/>
  <unicode hex="20AC"/>
  <outline>
    <contour>
      <point x="32" y="459" type="line"/>
      <point x="99" y="459" type="line"/>
      <point x="114" y="495"/>
      <point x="162" y="552"/>
      <point x="225" y="591"/>
      <point x="298" y="612"/>
      <point x="338" y="612" type="qcurve"/>
      <point x="386" y="612"/>
      <point x="468" y="584"/>
      <point x="531" y="534"/>
      <point x="571" y="464"/>
      <point x="578" y="422" type="qcurve"/>
      <point x="466" y="396" type="line"/>
      <point x="462" y="418"/>
      <point x="444" y="457"/>
      <point x="414" y="487"/>
      <point x="369" y="504"/>
      <point x="338" y="504" type="qcurve"/>
      <point x="306" y="504"/>
      <point x="253" y="480"/>
      <point x="233" y="459" type="qcurve"/>
      <point x="340" y="459" type="line"/>
      <point x="340" y="363" type="line"/>
      <point x="194" y="363" type="line"/>
      <point x="194" y="333" type="line"/>
      <point x="340" y="333" type="line"/>
      <point x="340" y="237" type="line"/>
      <point x="234" y="237" type="line"/>
      <point x="275" y="196"/>
      <point x="340" y="196" type="qcurve"/>
      <point x="371" y="196"/>
      <point x="415" y="215"/>
      <point x="445" y="245"/>
      <point x="463" y="284"/>
      <point x="468" y="304" type="qcurve"/>
      <point x="580" y="278" type="line"/>
      <point x="572" y="236"/>
      <point x="531" y="166"/>
      <point x="468" y="116"/>
      <point x="385" y="88"/>
      <point x="336" y="88" type="qcurve"/>
      <point x="256" y="88"/>
      <point x="128" y="165"/>
      <point x="99" y="237" type="qcurve"/>
      <point x="32" y="237" type="line"/>
      <point x="32" y="333" type="line"/>
      <point x="80" y="333" type="line"/>
      <point x="80" y="363" type="line"/>
      <point x="32" y="363" type="line"/>
    </contour>
  </outline>
</glyph>
<glyph name="uni2113" format="1">
  <advance width="612"/>
  <unicode hex="2113"/>
  <outline>
    <contour>
      <point x="324" y="150" type="line"/>
      <point x="324" y="120"/>
      <point x="351" y="120" type="qcurve"/>
      <point x="504" y="120" type="line"/>
      <point x="504" y="0" type="line"/>
      <point x="294" y="0" type="line"/>
      <point x="252" y="0"/>
      <point x="198" y="54"/>
      <point x="198" y="96" type="qcurve"/>
      <point x="198" y="183" type="line"/>
      <point x="189" y="182"/>
      <point x="171" y="182"/>
      <point x="162" y="182" type="qcurve"/>
      <point x="54" y="182" type="line"/>
      <point x="54" y="302" type="line"/>
      <point x="150" y="302" type="line"/>
      <point x="163" y="302"/>
      <point x="187" y="303"/>
      <point x="198" y="304" type="qcurve"/>
      <point x="198" y="552" type="line"/>
      <point x="198" y="583"/>
      <point x="220" y="642"/>
      <point x="262" y="687"/>
      <point x="322" y="714"/>
      <point x="360" y="714" type="qcurve"/>
      <point x="403" y="714"/>
      <point x="466" y="684"/>
      <point x="508" y="633"/>
      <point x="528" y="562"/>
      <point x="528" y="522" type="qcurve"/>
      <point x="528" y="410"/>
      <point x="420" y="248"/>
      <point x="324" y="210" type="qcurve"/>
    </contour>
    <contour>
      <point x="324" y="349" type="line"/>
      <point x="402" y="407"/>
      <point x="402" y="522" type="qcurve"/>
      <point x="402" y="555"/>
      <point x="385" y="594"/>
      <point x="362" y="594" type="qcurve"/>
      <point x="324" y="594"/>
      <point x="324" y="540" type="qcurve"/>
    </contour>
  </outline>
</glyph>
<glyph name="arrowright" format="1">
  <advance width="612"/>
  <unicode hex="2192"/>
  <outline>
    <contour>
      <point x="588" y="450" type="line"/>
      <point x="588" y="250" type="line"/>
      <point x="431" y="94" type="line"/>
      <point x="350" y="175" type="line"/>
      <point x="447" y="272" type="line"/>
      <point x="516" y="300" type="line"/>
      <point x="509" y="317" type="line"/>
      <point x="447" y="293" type="line"/>
      <point x="24" y="293" type="line"/>
      <point x="24" y="407" type="line"/>
      <point x="447" y="407" type="line"/>
      <point x="509" y="383" type="line"/>
      <point x="516" y="400" type="line"/>
      <point x="447" y="428" type="line"/>
      <point x="350" y="525" type="line"/>
      <point x="431" y="606" type="line"/>
    </contour>
  </outline>
</glyph>
<glyph name="arrowupdn" format="1">
  <advance width="612"/>
  <unicode hex="2195"/>
  <outline>
    <contour>
      <point x="406" y="56" type="line"/>
      <point x="206" y="56" type="line"/>
      <point x="50" y="213" type="line"/>
      <point x="131" y="294" type="line"/>
      <point x="228" y="197" type="line"/>
      <point x="256" y="128" type="line"/>
      <point x="273" y="135" type="line"/>
      <point x="249" y="197" type="line"/>
      <point x="249" y="503" type="line"/>
      <point x="273" y="565" type="line"/>
      <point x="256" y="572" type="line"/>
      <point x="228" y="503" type="line"/>
      <point x="131" y="406" type="line"/>
      <point x="50" y="487" type="line"/>
      <point x="206" y="644" type="line"/>
      <point x="406" y="644" type="line"/>
      <point x="562" y="487" type="line"/>
      <point x="481" y="406" type="line"/>
      <point x="384" y="503" type="line"/>
      <point x="356" y="572" type="line"/>
      <point x="339" y="565" type="line"/>
      <point x="363" y="503" type="line"/>
      <point x="363" y="197" type="line"/>
      <point x="339" y="135" type="line"/>
      <point x="356" y="128" type="line"/>
      <point x="384" y="197" type="line"/>
      <point x="481" y="294" type="line"/>
      <point x="562" y="213" type="line"/>
    </contour>
  </outline>
</glyph>
<glyph name="partialdiff" format="1">
  <advance width="612"/>
  <unicode hex="2202"/>
  <outline>
    <contour>
      <point x="409" y="464" type="line"/>
      <point x="382" y="533"/>
      <point x="244" y="603"/>
      <point x="147" y="614" type="qcurve"/>
      <point x="167" y="728" type="line"/>
      <point x="261" y="718"/>
      <point x="409" y="654"/>
      <point x="511" y="545"/>
      <point x="565" y="391"/>
      <point x="565" y="291" type="qcurve"/>
      <point x="565" y="215"/>
      <point x="525" y="101"/>
      <point x="455" y="24"/>
      <point x="358" y="-14"/>
      <point x="301" y="-14" type="qcurve"/>
      <point x="249" y="-14"/>
      <point x="157" y="21"/>
      <point x="88" y="87"/>
      <point x="47" y="182"/>
      <point x="47" y="242" type="qcurve"/>
      <point x="47" y="254" type="line"/>
      <point x="47" y="315"/>
      <point x="83" y="410"/>
      <point x="144" y="476"/>
      <point x="223" y="510"/>
      <point x="267" y="510" type="qcurve"/>
      <point x="314" y="510"/>
      <point x="371" y="488"/>
      <point x="391" y="464" type="qcurve"/>
    </contour>
    <contour>
      <point x="302" y="106" type="qcurve"/>
      <point x="360" y="106"/>
      <point x="432" y="179"/>
      <point x="432" y="254" type="qcurve"/>
      <point x="432" y="317"/>
      <point x="360" y="390"/>
      <point x="302" y="390" type="qcurve"/>
      <point x="244" y="390"/>
      <point x="173" y="314"/>
      <point x="173" y="251" type="qcurve"/>
      <point x="173" y="245" type="line"/>
      <point x="173" y="179"/>
      <point x="244" y="106"/>
    </contour>
  </outline>
</glyph>
<glyph name="uni2206" format="1">
  <advance width="612"/>
  <unicode hex="2206"/>
  <outline>
    <contour>
      <point x="15" y="0" type="line"/>
      <point x="182" y="700" type="line"/>
      <point x="430" y="700" type="line"/>
      <point x="597" y="0" type="line"/>
    </contour>
    <contour>
      <point x="181" y="126" type="line"/>
      <point x="430" y="126" type="line"/>
      <point x="315" y="634" type="line"/>
      <point x="297" y="634" type="line"/>
    </contour>
  </outline>
</glyph>
<glyph name="uni2215" format="1">
  <advance width="612"/>
  <unicode hex="2215"/>
  <outline>
    <contour>
      <point x="468" y="825" type="line"/>
      <point x="577" y="774" type="line"/>
      <point x="145" y="-125" type="line"/>
      <point x="35" y="-74" type="line"/>
    </contour>
  </outline>
</glyph>
<glyph name="uni2219" format="1">
  <advance width="612"/>
  <unicode hex="2219"/>
  <outline>
    <contour>
      <point x="186" y="350" type="qcurve"/>
      <point x="186" y="375"/>
      <point x="205" y="418"/>
      <point x="238" y="451"/>
      <point x="281" y="470"/>
      <point x="306" y="470" type="qcurve"/>
      <point x="331" y="470"/>
      <point x="374" y="451"/>
      <point x="407" y="418"/>
      <point x="426" y="375"/>
      <point x="426" y="350" type="qcurve"/>
      <point x="426" y="325"/>
      <point x="407" y="282"/>
      <point x="374" y="249"/>
      <point x="331" y="230"/>
      <point x="306" y="230" type="qcurve"/>
      <point x="281" y="230"/>
      <point x="238" y="249"/>
      <point x="205" y="282"/>
      <point x="186" y="325"/>
    </contour>
  </outline>
</glyph>
<glyph name="fl" format="1">
  <advance width="612"/>
  <unicode hex="FB02"/>
  <outline>
    <contour>
      <point x="368" y="376" type="line"/>
      <point x="267" y="376" type="line"/>
      <point x="267" y="0" type="line"/>
      <point x="141" y="0" type="line"/>
      <point x="141" y="376" type="line"/>
      <point x="24" y="376" type="line"/>
      <point x="24" y="496" type="line"/>
      <point x="141" y="496" type="line"/>
      <point x="141" y="598" type="line"/>
      <point x="141" y="641"/>
      <point x="199" y="700"/>
      <point x="242" y="700" type="qcurve"/>
      <point x="542" y="700" type="line"/>
      <point x="542" y="0" type="line"/>
      <point x="416" y="0" type="line"/>
      <point x="416" y="580" type="line"/>
      <point x="294" y="580" type="line"/>
      <point x="267" y="580"/>
      <point x="267" y="550" type="qcurve"/>
      <point x="267" y="496" type="line"/>
      <point x="368" y="496" type="line"/>
    </contour>
  </outline>
</glyph>
<glyph name="D.alt" format="1">
  <advance width="612"/>
  <outline>
    <contour>
      <point x="82" y="700" type="line"/>
      <point x="282" y="700" type="line"/>
      <point x="412" y="700"/>
      <point x="538" y="579"/>
      <point x="538" y="452" type="qcurve"/>
      <point x="538" y="248" type="line"/>
      <point x="538" y="121"/>
      <point x="412" y="0"/>
      <point x="282" y="0" type="qcurve"/>
      <point x="82" y="0" type="line"/>
    </contour>
    <contour>
      <point x="282" y="126" type="line"/>
      <point x="351" y="126"/>
      <point x="406" y="191"/>
      <point x="406" y="260" type="qcurve"/>
      <point x="406" y="452" type="line"/>
      <point x="406" y="512"/>
      <point x="351" y="574"/>
      <point x="282" y="574" type="qcurve"/>
      <point x="214" y="574" type="line"/>
      <point x="214" y="126" type="line"/>
    </contour>
  </outline>
</glyph>
<glyph name="Euro.cap" format="1">
  <advance width="612"/>
  <outline>
    <contour>
      <point x="12" y="480" type="line"/>
      <point x="75" y="480" type="line"/>
      <point x="89" y="592"/>
      <point x="223" y="714"/>
      <point x="332" y="714" type="qcurve"/>
      <point x="394" y="714"/>
      <point x="490" y="678"/>
      <point x="555" y="610"/>
      <point x="588" y="514"/>
      <point x="588" y="454" type="qcurve"/>
      <point x="588" y="448" type="line"/>
      <point x="456" y="430" type="line"/>
      <point x="456" y="454" type="line"/>
      <point x="456" y="479"/>
      <point x="444" y="529"/>
      <point x="416" y="569"/>
      <point x="368" y="594"/>
      <point x="332" y="594" type="qcurve"/>
      <point x="277" y="594"/>
      <point x="216" y="528"/>
      <point x="207" y="480" type="qcurve"/>
      <point x="338" y="480" type="line"/>
      <point x="338" y="366" type="line"/>
      <point x="204" y="366" type="line"/>
      <point x="204" y="330" type="line"/>
      <point x="338" y="330" type="line"/>
      <point x="338" y="216" type="line"/>
      <point x="207" y="216" type="line"/>
      <point x="215" y="166"/>
      <point x="274" y="106"/>
      <point x="332" y="106" type="qcurve"/>
      <point x="370" y="106"/>
      <point x="419" y="129"/>
      <point x="446" y="168"/>
      <point x="456" y="219"/>
      <point x="456" y="246" type="qcurve"/>
      <point x="456" y="270" type="line"/>
      <point x="588" y="252" type="line"/>
      <point x="588" y="246" type="line"/>
      <point x="588" y="121"/>
      <point x="457" y="-14"/>
      <point x="332" y="-14" type="qcurve"/>
      <point x="224" y="-14"/>
      <point x="89" y="103"/>
      <point x="75" y="216" type="qcurve"/>
      <point x="12" y="216" type="line"/>
      <point x="12" y="330" type="line"/>
      <point x="72" y="330" type="line"/>
      <point x="72" y="366" type="line"/>
      <point x="12" y="366" type="line"/>
    </contour>
  </outline>
</glyph>
<glyph name="IJacute" format="1">
  <advance width="612"/>
  <outline>
    <contour>
      <point x="190" y="700" type="line"/>
      <point x="190" y="342" type="line"/>
      <point x="58" y="342" type="line"/>
      <point x="58" y="700" type="line"/>
    </contour>
    <contour>
      <point x="514" y="210" type="line"/>
      <point x="514" y="101"/>
      <point x="396" y="-14"/>
      <point x="293" y="-14" type="qcurve"/>
      <point x="240" y="-14"/>
      <point x="154" y="15"/>
      <point x="92" y="72"/>
      <point x="58" y="155"/>
      <point x="58" y="210" type="qcurve"/>
      <point x="58" y="276" type="line"/>
      <point x="190" y="276" type="line"/>
      <point x="190" y="210" type="line"/>
      <point x="190" y="163"/>
      <point x="242" y="110"/>
      <point x="289" y="110" type="qcurve"/>
      <point x="333" y="110"/>
      <point x="382" y="162"/>
      <point x="382" y="210" type="qcurve"/>
      <point x="382" y="576" type="line"/>
      <point x="310" y="576" type="line"/>
      <point x="310" y="700" type="line"/>
      <point x="574" y="700" type="line"/>
      <point x="574" y="576" type="line"/>
      <point x="514" y="576" type="line"/>
    </contour>
    <component base="acute" xOffset="-142" yOffset="204"/>
    <component base="acute" xOffset="182" yOffset="204"/>
  </outline>
</glyph>
<glyph name="J.alt" format="1">
  <advance width="612"/>
  <outline>
    <contour>
      <point x="532" y="210" type="line"/>
      <point x="532" y="101"/>
      <point x="414" y="-14"/>
      <point x="311" y="-14" type="qcurve"/>
      <point x="258" y="-14"/>
      <point x="172" y="15"/>
      <point x="110" y="72"/>
      <point x="76" y="155"/>
      <point x="76" y="210" type="qcurve"/>
      <point x="76" y="276" type="line"/>
      <point x="208" y="276" type="line"/>
      <point x="208" y="210" type="line"/>
      <point x="208" y="163"/>
      <point x="260" y="110"/>
      <point x="307" y="110" type="qcurve"/>
      <point x="351" y="110"/>
      <point x="400" y="162"/>
      <point x="400" y="210" type="qcurve"/>
      <point x="400" y="700" type="line"/>
      <point x="532" y="700" type="line"/>
    </contour>
  </outline>
</glyph>
<glyph name="at.cap" format="1">
  <advance width="612"/>
  <outline>
    <contour>
      <point x="558" y="150" type="line"/>
      <point x="558" y="120"/>
      <point x="585" y="120" type="qcurve"/>
      <point x="604" y="120" type="line"/>
      <point x="604" y="0" type="line"/>
      <point x="508" y="0" type="line"/>
      <point x="481" y="0"/>
      <point x="443" y="28"/>
      <point x="438" y="54" type="qcurve"/>
      <point x="420" y="54" type="line"/>
      <point x="412" y="25"/>
      <point x="370" y="-14"/>
      <point x="328" y="-14" type="qcurve"/>
      <point x="253" y="-14"/>
      <point x="186" y="110"/>
      <point x="186" y="235" type="qcurve"/>
      <point x="186" y="269" type="line"/>
      <point x="186" y="333"/>
      <point x="207" y="425"/>
      <point x="245" y="483"/>
      <point x="298" y="510"/>
      <point x="330" y="510" type="qcurve"/>
      <point x="362" y="510"/>
      <point x="409" y="477"/>
      <point x="414" y="448" type="qcurve"/>
      <point x="432" y="448" type="line"/>
      <point x="432" y="528" type="line"/>
      <point x="432" y="560"/>
      <point x="395" y="594"/>
      <point x="360" y="594" type="qcurve"/>
      <point x="224" y="594" type="line"/>
      <point x="183" y="594"/>
      <point x="146" y="554"/>
      <point x="146" y="510" type="qcurve"/>
      <point x="146" y="32" type="line"/>
      <point x="146" y="-21"/>
      <point x="187" y="-80"/>
      <point x="244" y="-80" type="qcurve"/>
      <point x="604" y="-80" type="line"/>
      <point x="604" y="-200" type="line"/>
      <point x="224" y="-200" type="line"/>
      <point x="124" y="-200"/>
      <point x="20" y="-94"/>
      <point x="20" y="4" type="qcurve"/>
      <point x="20" y="530" type="line"/>
      <point x="20" y="573"/>
      <point x="46" y="642"/>
      <point x="94" y="689"/>
      <point x="160" y="714"/>
      <point x="200" y="714" type="qcurve"/>
      <point x="368" y="714" type="line"/>
      <point x="459" y="714"/>
      <point x="558" y="624"/>
      <point x="558" y="530" type="qcurve"/>
    </contour>
    <contour>
      <point x="374" y="390" type="qcurve"/>
      <point x="341" y="390"/>
      <point x="312" y="329"/>
      <point x="312" y="263" type="qcurve"/>
      <point x="312" y="233" type="line"/>
      <point x="312" y="167"/>
      <point x="341" y="106"/>
      <point x="374" y="106" type="qcurve"/>
      <point x="406" y="106"/>
      <point x="432" y="153"/>
      <point x="432" y="194" type="qcurve"/>
      <point x="432" y="302" type="line"/>
      <point x="432" y="343"/>
      <point x="406" y="390"/>
    </contour>
  </outline>
</glyph>
<glyph name="dollar.cap" format="1">
  <advance width="612"/>
  <outline>
    <contour>
      <point x="370" y="708" type="line"/>
      <point x="416" y="699"/>
      <point x="486" y="658"/>
      <point x="534" y="602"/>
      <point x="558" y="534"/>
      <point x="558" y="498" type="qcurve"/>
      <point x="558" y="462" type="line"/>
      <point x="432" y="462" type="line"/>
      <point x="432" y="486" type="line"/>
      <point x="432" y="516"/>
      <point x="399" y="566"/>
      <point x="370" y="580" type="qcurve"/>
      <point x="370" y="410" type="line"/>
      <point x="467" y="388"/>
      <point x="570" y="290"/>
      <point x="570" y="208" type="qcurve"/>
      <point x="570" y="196" type="line"/>
      <point x="570" y="112"/>
      <point x="464" y="2"/>
      <point x="370" y="-10" type="qcurve"/>
      <point x="370" y="-92" type="line"/>
      <point x="256" y="-92" type="line"/>
      <point x="256" y="-10" type="line"/>
      <point x="202" y="-2"/>
      <point x="119" y="42"/>
      <point x="64" y="109"/>
      <point x="36" y="194"/>
      <point x="36" y="242" type="qcurve"/>
      <point x="36" y="272" type="line"/>
      <point x="162" y="272" type="line"/>
      <point x="162" y="248" type="line"/>
      <point x="162" y="197"/>
      <point x="208" y="128"/>
      <point x="256" y="114" type="qcurve"/>
      <point x="256" y="310" type="line"/>
      <point x="212" y="320"/>
      <point x="140" y="352"/>
      <point x="89" y="399"/>
      <point x="60" y="464"/>
      <point x="60" y="508" type="qcurve"/>
      <point x="60" y="514" type="line"/>
      <point x="60" y="552"/>
      <point x="87" y="618"/>
      <point x="138" y="670"/>
      <point x="211" y="705"/>
      <point x="256" y="711" type="qcurve"/>
      <point x="256" y="792" type="line"/>
      <point x="370" y="792" type="line"/>
    </contour>
    <contour>
      <point x="444" y="196" type="qcurve"/>
      <point x="444" y="224"/>
      <point x="412" y="268"/>
      <point x="370" y="284" type="qcurve"/>
      <point x="370" y="112" type="line"/>
      <point x="406" y="121"/>
      <point x="444" y="166"/>
    </contour>
    <contour>
      <point x="186" y="514" type="qcurve"/>
      <point x="186" y="489"/>
      <point x="218" y="451"/>
      <point x="256" y="437" type="qcurve"/>
      <point x="256" y="588" type="line"/>
      <point x="224" y="580"/>
      <point x="186" y="543"/>
    </contour>
  </outline>
</glyph>
<glyph name="florin.cap" format="1">
  <advance width="612"/>
  <outline>
    <contour>
      <point x="101" y="462" type="line"/>
      <point x="242" y="462" type="line"/>
      <point x="242" y="598" type="line"/>
      <point x="242" y="641"/>
      <point x="300" y="700"/>
      <point x="343" y="700" type="qcurve"/>
      <point x="565" y="700" type="line"/>
      <point x="565" y="580" type="line"/>
      <point x="395" y="580" type="line"/>
      <point x="368" y="580"/>
      <point x="368" y="550" type="qcurve"/>
      <point x="368" y="462" type="line"/>
      <point x="513" y="462" type="line"/>
      <point x="513" y="342" type="line"/>
      <point x="368" y="342" type="line"/>
      <point x="368" y="102" type="line"/>
      <point x="368" y="59"/>
      <point x="310" y="0"/>
      <point x="267" y="0" type="qcurve"/>
      <point x="60" y="0" type="line"/>
      <point x="60" y="120" type="line"/>
      <point x="215" y="120" type="line"/>
      <point x="242" y="120"/>
      <point x="242" y="150" type="qcurve"/>
      <point x="242" y="342" type="line"/>
      <point x="101" y="342" type="line"/>
    </contour>
  </outline>
</glyph>
<glyph name="four.tosn" format="1">
  <advance width="612"/>
  <outline>
    <contour>
      <point x="234" y="496" type="line"/>
      <point x="486" y="496" type="line"/>
      <point x="486" y="126" type="line"/>
      <point x="576" y="126" type="line"/>
      <point x="576" y="0" type="line"/>
      <point x="486" y="0" type="line"/>
      <point x="486" y="-194" type="line"/>
      <point x="354" y="-194" type="line"/>
      <point x="354" y="0" type="line"/>
      <point x="46" y="0" type="line"/>
      <point x="46" y="186" type="line"/>
    </contour>
    <contour>
      <point x="160" y="144" type="line"/>
      <point x="160" y="126" type="line"/>
      <point x="354" y="126" type="line"/>
      <point x="354" y="430" type="line"/>
      <point x="336" y="430" type="line"/>
    </contour>
  </outline>
</glyph>
<glyph name="ijacute" format="1">
  <advance width="612"/>
  <outline>
    <contour>
      <point x="411" y="496" type="line"/>
      <point x="537" y="496" type="line"/>
      <point x="537" y="-122" type="line"/>
      <point x="537" y="-156"/>
      <point x="494" y="-200"/>
      <point x="460" y="-200" type="qcurve"/>
      <point x="201" y="-200" type="line"/>
      <point x="201" y="-80" type="line"/>
      <point x="384" y="-80" type="line"/>
      <point x="411" y="-80"/>
      <point x="411" y="-50" type="qcurve"/>
      <point x="411" y="72" type="line"/>
      <point x="393" y="72" type="line"/>
      <point x="360" y="-14"/>
      <point x="251" y="-14" type="qcurve"/>
      <point x="214" y="-14"/>
      <point x="150" y="10"/>
      <point x="102" y="60"/>
      <point x="75" y="135"/>
      <point x="75" y="186" type="qcurve"/>
      <point x="75" y="496" type="line"/>
      <point x="201" y="496" type="line"/>
      <point x="201" y="212" type="line"/>
      <point x="201" y="159"/>
      <point x="251" y="100"/>
      <point x="301" y="100" type="qcurve"/>
      <point x="358" y="100"/>
      <point x="411" y="173"/>
      <point x="411" y="236" type="qcurve"/>
    </contour>
    <component base="acute" xOffset="-128"/>
    <component base="acute" xOffset="208"/>
  </outline>
</glyph>
<glyph name="iogonek.alt" format="1">
  <advance width="612"/>
  <outline>
    <contour>
      <point x="352" y="-170" type="line"/>
      <point x="322" y="-170"/>
      <point x="272" y="-132"/>
      <point x="272" y="-95" type="qcurve"/>
      <point x="272" y="-86"/>
      <point x="275" y="-72" type="qcurve"/>
      <point x="301" y="42" type="line"/>
      <point x="301" y="376" type="line"/>
      <point x="127" y="376" type="line"/>
      <point x="127" y="496" type="line"/>
      <point x="427" y="496" type="line"/>
      <point x="427" y="0" type="line"/>
      <point x="377" y="0" type="line"/>
      <point x="364" y="-56" type="line"/>
      <point x="363" y="-61"/>
      <point x="363" y="-64" type="qcurve"/>
      <point x="363" y="-86"/>
      <point x="386" y="-86" type="qcurve"/>
      <point x="427" y="-86" type="line"/>
      <point x="427" y="-170" type="line"/>
    </contour>
    <contour>
      <point x="458" y="643" type="qcurve"/>
      <point x="458" y="623"/>
      <point x="443" y="588"/>
      <point x="417" y="563"/>
      <point x="382" y="548"/>
      <point x="363" y="548" type="qcurve"/>
      <point x="343" y="548"/>
      <point x="309" y="563"/>
      <point x="283" y="588"/>
      <point x="268" y="623"/>
      <point x="268" y="643" type="qcurve"/>
      <point x="268" y="663"/>
      <point x="283" y="698"/>
      <point x="309" y="723"/>
      <point x="343" y="738"/>
      <point x="363" y="738" type="qcurve"/>
      <point x="382" y="738"/>
      <point x="417" y="723"/>
      <point x="443" y="698"/>
      <point x="458" y="663"/>
    </contour>
  </outline>
</glyph>
<glyph name="j.alt" format="1">
  <advance width="612"/>
  <outline>
    <contour>
      <point x="114" y="496" type="line"/>
      <point x="444" y="496" type="line"/>
      <point x="444" y="-200" type="line"/>
      <point x="318" y="-200" type="line"/>
      <point x="318" y="376" type="line"/>
      <point x="114" y="376" type="line"/>
    </contour>
    <contour>
      <point x="474" y="643" type="qcurve"/>
      <point x="474" y="623"/>
      <point x="459" y="588"/>
      <point x="433" y="563"/>
      <point x="398" y="548"/>
      <point x="379" y="548" type="qcurve"/>
      <point x="359" y="548"/>
      <point x="325" y="563"/>
      <point x="299" y="588"/>
      <point x="284" y="623"/>
      <point x="284" y="643" type="qcurve"/>
      <point x="284" y="663"/>
      <point x="299" y="698"/>
      <point x="325" y="723"/>
      <point x="359" y="738"/>
      <point x="379" y="738" type="qcurve"/>
      <point x="398" y="738"/>
      <point x="433" y="723"/>
      <point x="459" y="698"/>
      <point x="474" y="663"/>
    </contour>
  </outline>
</glyph>
<glyph name="lcaron.alt" format="1">
  <advance width="612"/>
  <outline>
    <contour>
      <point x="550" y="496" type="line"/>
      <point x="550" y="458"/>
      <point x="498" y="406"/>
      <point x="460" y="406" type="qcurve"/>
      <point x="400" y="406" type="line"/>
      <point x="400" y="484" type="line"/>
      <point x="445" y="484" type="line"/>
      <point x="472" y="484"/>
      <point x="472" y="514" type="qcurve"/>
      <point x="472" y="526" type="line"/>
      <point x="463" y="526" type="line"/>
      <point x="445" y="526"/>
      <point x="414" y="540"/>
      <point x="390" y="564"/>
      <point x="376" y="595"/>
      <point x="376" y="613" type="qcurve"/>
      <point x="376" y="631"/>
      <point x="390" y="662"/>
      <point x="414" y="686"/>
      <point x="445" y="700"/>
      <point x="463" y="700" type="qcurve"/>
      <point x="481" y="700"/>
      <point x="512" y="686"/>
      <point x="536" y="662"/>
      <point x="550" y="631"/>
      <point x="550" y="613" type="qcurve"/>
    </contour>
    <component base="l.alt" xOffset="-34"/>
  </outline>
</glyph>
<glyph name="nine.tosn" format="1">
  <advance width="612"/>
  <outline>
    <contour>
      <point x="194" y="6" type="line"/>
      <point x="203" y="-29"/>
      <point x="258" y="-76"/>
      <point x="306" y="-76" type="qcurve"/>
      <point x="362" y="-76"/>
      <point x="423" y="-11"/>
      <point x="423" y="40" type="qcurve"/>
      <point x="423" y="112" type="line"/>
      <point x="405" y="112" type="line"/>
      <point x="391" y="77"/>
      <point x="327" y="34"/>
      <point x="268" y="34" type="qcurve"/>
      <point x="223" y="34"/>
      <point x="146" y="67"/>
      <point x="89" y="127"/>
      <point x="57" y="211"/>
      <point x="57" y="262" type="qcurve"/>
      <point x="57" y="274" type="line"/>
      <point x="57" y="324"/>
      <point x="93" y="411"/>
      <point x="158" y="474"/>
      <point x="251" y="510"/>
      <point x="308" y="510" type="qcurve"/>
      <point x="360" y="510"/>
      <point x="451" y="476"/>
      <point x="517" y="415"/>
      <point x="555" y="330"/>
      <point x="555" y="279" type="qcurve"/>
      <point x="555" y="42" type="line"/>
      <point x="555" y="-17"/>
      <point x="520" y="-107"/>
      <point x="456" y="-168"/>
      <point x="365" y="-200"/>
      <point x="310" y="-200" type="qcurve"/>
      <point x="264" y="-200"/>
      <point x="184" y="-179"/>
      <point x="121" y="-137"/>
      <point x="78" y="-76"/>
      <point x="69" y="-36" type="qcurve"/>
    </contour>
    <contour>
      <point x="306" y="384" type="qcurve"/>
      <point x="255" y="384"/>
      <point x="189" y="323"/>
      <point x="189" y="272" type="qcurve"/>
      <point x="189" y="221"/>
      <point x="255" y="160"/>
      <point x="306" y="160" type="qcurve"/>
      <point x="357" y="160"/>
      <point x="423" y="221"/>
      <point x="423" y="272" type="qcurve"/>
      <point x="423" y="323"/>
      <point x="357" y="384"/>
    </contour>
  </outline>
</glyph>
<glyph name="registered.cap" format="1">
  <advance width="612"/>
  <outline>
    <contour>
      <point x="430" y="136" type="line"/>
      <point x="334" y="136" type="line"/>
      <point x="334" y="262" type="line"/>
      <point x="334" y="274"/>
      <point x="322" y="289"/>
      <point x="308" y="289" type="qcurve"/>
      <point x="276" y="289" type="line"/>
      <point x="276" y="136" type="line"/>
      <point x="180" y="136" type="line"/>
      <point x="180" y="564" type="line"/>
      <point x="301" y="564" type="line"/>
      <point x="377" y="564"/>
      <point x="442" y="500"/>
      <point x="442" y="446" type="qcurve"/>
      <point x="442" y="401"/>
      <point x="413" y="354"/>
      <point x="393" y="343" type="qcurve"/>
      <point x="393" y="334" type="line"/>
      <point x="412" y="329"/>
      <point x="430" y="304"/>
      <point x="430" y="278" type="qcurve"/>
    </contour>
    <contour>
      <point x="276" y="379" type="line"/>
      <point x="296" y="379" type="line"/>
      <point x="319" y="379"/>
      <point x="346" y="402"/>
      <point x="346" y="428" type="qcurve"/>
      <point x="346" y="452"/>
      <point x="319" y="474"/>
      <point x="296" y="474" type="qcurve"/>
      <point x="276" y="474" type="line"/>
    </contour>
    <contour>
      <point x="30" y="514" type="line"/>
      <point x="30" y="612"/>
      <point x="135" y="714"/>
      <point x="224" y="714" type="qcurve"/>
      <point x="388" y="714" type="line"/>
      <point x="477" y="714"/>
      <point x="582" y="612"/>
      <point x="582" y="514" type="qcurve"/>
      <point x="582" y="186" type="line"/>
      <point x="582" y="88"/>
      <point x="477" y="-14"/>
      <point x="388" y="-14" type="qcurve"/>
      <point x="224" y="-14" type="line"/>
      <point x="135" y="-14"/>
      <point x="30" y="88"/>
      <point x="30" y="186" type="qcurve"/>
    </contour>
    <contour>
      <point x="126" y="206" type="line"/>
      <point x="126" y="146"/>
      <point x="181" y="82"/>
      <point x="240" y="82" type="qcurve"/>
      <point x="372" y="82" type="line"/>
      <point x="431" y="82"/>
      <point x="486" y="146"/>
      <point x="486" y="206" type="qcurve"/>
      <point x="486" y="494" type="line"/>
      <point x="486" y="554"/>
      <point x="431" y="618"/>
      <point x="372" y="618" type="qcurve"/>
      <point x="240" y="618" type="line"/>
      <point x="181" y="618"/>
      <point x="126" y="554"/>
      <point x="126" y="494" type="qcurve"/>
    </contour>
  </outline>
</glyph>
<glyph name="seven.tosn" format="1">
  <advance width="612"/>
  <outline>
    <contour>
      <point x="60" y="496" type="line"/>
      <point x="546" y="496" type="line"/>
      <point x="546" y="290" type="line"/>
      <point x="303" y="-70" type="line"/>
      <point x="283" y="-100"/>
      <point x="260" y="-143"/>
      <point x="260" y="-170" type="qcurve"/>
      <point x="260" y="-194" type="line"/>
      <point x="118" y="-194" type="line"/>
      <point x="118" y="-164" type="line"/>
      <point x="118" y="-144"/>
      <point x="124" y="-111"/>
      <point x="137" y="-79"/>
      <point x="159" y="-43"/>
      <point x="175" y="-20" type="qcurve"/>
      <point x="426" y="352" type="line"/>
      <point x="426" y="370" type="line"/>
      <point x="60" y="370" type="line"/>
    </contour>
  </outline>
</glyph>
<glyph name="six.tosn" format="1">
  <advance width="612"/>
  <outline>
    <contour>
      <point x="413" y="500" type="line"/>
      <point x="409" y="536"/>
      <point x="358" y="588"/>
      <point x="304" y="588" type="qcurve"/>
      <point x="251" y="588"/>
      <point x="189" y="525"/>
      <point x="189" y="474" type="qcurve"/>
      <point x="189" y="384" type="line"/>
      <point x="207" y="384" type="line"/>
      <point x="224" y="419"/>
      <point x="298" y="462"/>
      <point x="348" y="462" type="qcurve"/>
      <point x="391" y="462"/>
      <point x="467" y="431"/>
      <point x="523" y="374"/>
      <point x="555" y="292"/>
      <point x="555" y="240" type="qcurve"/>
      <point x="555" y="228" type="line"/>
      <point x="555" y="175"/>
      <point x="520" y="86"/>
      <point x="455" y="22"/>
      <point x="363" y="-14"/>
      <point x="306" y="-14" type="qcurve"/>
      <point x="254" y="-14"/>
      <point x="163" y="19"/>
      <point x="96" y="80"/>
      <point x="57" y="165"/>
      <point x="57" y="217" type="qcurve"/>
      <point x="57" y="472" type="line"/>
      <point x="57" y="528"/>
      <point x="96" y="618"/>
      <point x="164" y="681"/>
      <point x="254" y="714"/>
      <point x="304" y="714" type="qcurve"/>
      <point x="405" y="714"/>
      <point x="529" y="614"/>
      <point x="543" y="520" type="qcurve"/>
    </contour>
    <contour>
      <point x="306" y="112" type="qcurve"/>
      <point x="357" y="112"/>
      <point x="423" y="173"/>
      <point x="423" y="224" type="qcurve"/>
      <point x="423" y="275"/>
      <point x="357" y="336"/>
      <point x="306" y="336" type="qcurve"/>
      <point x="255" y="336"/>
      <point x="189" y="275"/>
      <point x="189" y="224" type="qcurve"/>
      <point x="189" y="173"/>
      <point x="255" y="112"/>
    </contour>
  </outline>
</glyph>
<glyph name="two.tosn" format="1">
  <advance width="612"/>
  <outline>
    <contour>
      <point x="528" y="126" type="line"/>
      <point x="528" y="0" type="line"/>
      <point x="80" y="0" type="line"/>
      <point x="80" y="112" type="line"/>
      <point x="80" y="198"/>
      <point x="176" y="280"/>
      <point x="274" y="288" type="qcurve"/>
      <point x="316" y="291"/>
      <point x="366" y="301"/>
      <point x="393" y="315"/>
      <point x="402" y="331"/>
      <point x="402" y="342" type="qcurve"/>
      <point x="402" y="365"/>
      <point x="351" y="390"/>
      <point x="310" y="390" type="qcurve"/>
      <point x="266" y="390"/>
      <point x="201" y="354"/>
      <point x="186" y="316" type="qcurve"/>
      <point x="76" y="366" type="line"/>
      <point x="106" y="438"/>
      <point x="233" y="510"/>
      <point x="314" y="510" type="qcurve"/>
      <point x="366" y="510"/>
      <point x="447" y="483"/>
      <point x="504" y="437"/>
      <point x="534" y="376"/>
      <point x="534" y="342" type="qcurve"/>
      <point x="534" y="310"/>
      <point x="516" y="258"/>
      <point x="474" y="217"/>
      <point x="404" y="190"/>
      <point x="351" y="184" type="qcurve"/>
      <point x="318" y="180"/>
      <point x="267" y="173"/>
      <point x="231" y="163"/>
      <point x="212" y="146"/>
      <point x="212" y="132" type="qcurve"/>
      <point x="212" y="126" type="line"/>
    </contour>
  </outline>
</glyph>
<glyph name="uni0123.alt" format="1">
  <advance width="612"/>
  <outline>
    <contour>
      <point x="211" y="778" type="line"/>
      <point x="211" y="816"/>
      <point x="263" y="868"/>
      <point x="301" y="868" type="qcurve"/>
      <point x="361" y="868" type="line"/>
      <point x="361" y="790" type="line"/>
      <point x="316" y="790" type="line"/>
      <point x="289" y="790"/>
      <point x="289" y="760" type="qcurve"/>
      <point x="289" y="748" type="line"/>
      <point x="298" y="748" type="line"/>
      <point x="316" y="748"/>
      <point x="347" y="734"/>
      <point x="371" y="710"/>
      <point x="385" y="679"/>
      <point x="385" y="661" type="qcurve"/>
      <point x="385" y="643"/>
      <point x="371" y="612"/>
      <point x="347" y="588"/>
      <point x="316" y="574"/>
      <point x="298" y="574" type="qcurve"/>
      <point x="280" y="574"/>
      <point x="249" y="588"/>
      <point x="225" y="612"/>
      <point x="211" y="643"/>
      <point x="211" y="661" type="qcurve"/>
    </contour>
    <component base="g.alt"/>
  </outline>
</glyph>
<glyph name="uni1E39.alt" format="1">
  <advance width="612"/>
  <outline>
    <contour>
      <point x="380" y="774" type="line"/>
      <point x="80" y="774" type="line"/>
      <point x="80" y="876" type="line"/>
      <point x="380" y="876" type="line"/>
    </contour>
    <component base="l.alt"/>
  </outline>
</glyph>
<glyph name="uni20A1.cap" format="1">
  <advance width="612"/>
  <outline>
    <contour>
      <point x="141" y="38" type="line"/>
      <point x="96" y="73"/>
      <point x="48" y="191"/>
      <point x="48" y="272" type="qcurve"/>
      <point x="48" y="428" type="line"/>
      <point x="48" y="558"/>
      <point x="175" y="706"/>
      <point x="287" y="713" type="qcurve"/>
      <point x="304" y="792" type="line"/>
      <point x="374" y="777" type="line"/>
      <point x="359" y="710" type="line"/>
      <point x="376" y="709"/>
      <point x="393" y="704" type="qcurve"/>
      <point x="412" y="792" type="line"/>
      <point x="482" y="777" type="line"/>
      <point x="460" y="675" type="line"/>
      <point x="511" y="643"/>
      <point x="564" y="530"/>
      <point x="564" y="454" type="qcurve"/>
      <point x="564" y="436" type="line"/>
      <point x="432" y="436" type="line"/>
      <point x="432" y="454" type="line"/>
      <point x="432" y="468"/>
      <point x="429" y="496"/>
      <point x="424" y="510" type="qcurve"/>
      <point x="337" y="108" type="line"/>
      <point x="366" y="112"/>
      <point x="403" y="138"/>
      <point x="424" y="176"/>
      <point x="432" y="222"/>
      <point x="432" y="246" type="qcurve"/>
      <point x="432" y="264" type="line"/>
      <point x="564" y="264" type="line"/>
      <point x="564" y="246" type="line"/>
      <point x="564" y="121"/>
      <point x="435" y="-13"/>
      <point x="311" y="-14" type="qcurve"/>
      <point x="294" y="-92" type="line"/>
      <point x="224" y="-77" type="line"/>
      <point x="239" y="-7" type="line"/>
      <point x="230" y="-5"/>
      <point x="214" y="0"/>
      <point x="206" y="2" type="qcurve"/>
      <point x="186" y="-92" type="line"/>
      <point x="116" y="-77" type="line"/>
    </contour>
    <contour>
      <point x="233" y="126" type="line"/>
      <point x="247" y="116"/>
      <point x="265" y="112" type="qcurve"/>
      <point x="366" y="582" type="line"/>
      <point x="359" y="585"/>
      <point x="343" y="590"/>
      <point x="334" y="592" type="qcurve"/>
    </contour>
    <contour>
      <point x="180" y="262" type="line"/>
      <point x="180" y="253"/>
      <point x="180" y="235"/>
      <point x="182" y="227" type="qcurve"/>
      <point x="259" y="585" type="line"/>
      <point x="218" y="569"/>
      <point x="180" y="488"/>
      <point x="180" y="438" type="qcurve"/>
    </contour>
  </outline>
</glyph>
<glyph name="uni20A4.cap" format="1">
  <advance width="612"/>
  <outline>
    <contour>
      <point x="48" y="444" type="line"/>
      <point x="108" y="444" type="line"/>
      <point x="108" y="490" type="line"/>
      <point x="108" y="599"/>
      <point x="226" y="714"/>
      <point x="329" y="714" type="qcurve"/>
      <point x="381" y="714"/>
      <point x="468" y="685"/>
      <point x="530" y="628"/>
      <point x="564" y="545"/>
      <point x="564" y="490" type="qcurve"/>
      <point x="564" y="424" type="line"/>
      <point x="438" y="424" type="line"/>
      <point x="438" y="494" type="line"/>
      <point x="438" y="541"/>
      <point x="380" y="594"/>
      <point x="333" y="594" type="qcurve"/>
      <point x="289" y="594"/>
      <point x="234" y="542"/>
      <point x="234" y="494" type="qcurve"/>
      <point x="234" y="444" type="line"/>
      <point x="336" y="444" type="line"/>
      <point x="336" y="330" type="line"/>
      <point x="234" y="330" type="line"/>
      <point x="234" y="294" type="line"/>
      <point x="336" y="294" type="line"/>
      <point x="336" y="180" type="line"/>
      <point x="234" y="180" type="line"/>
      <point x="234" y="120" type="line"/>
      <point x="564" y="120" type="line"/>
      <point x="564" y="0" type="line"/>
      <point x="48" y="0" type="line"/>
      <point x="48" y="120" type="line"/>
      <point x="108" y="120" type="line"/>
      <point x="108" y="180" type="line"/>
      <point x="48" y="180" type="line"/>
      <point x="48" y="294" type="line"/>
      <point x="108" y="294" type="line"/>
      <point x="108" y="330" type="line"/>
      <point x="48" y="330" type="line"/>
    </contour>
  </outline>
</glyph>
<glyph name="uni20A6.cap" format="1">
  <advance width="612"/>
  <outline>
    <contour>
      <point x="350" y="480" type="line"/>
      <point x="407" y="480" type="line"/>
      <point x="407" y="700" type="line"/>
      <point x="539" y="700" type="line"/>
      <point x="539" y="480" type="line"/>
      <point x="599" y="480" type="line"/>
      <point x="599" y="366" type="line"/>
      <point x="539" y="366" type="line"/>
      <point x="539" y="330" type="line"/>
      <point x="599" y="330" type="line"/>
      <point x="599" y="216" type="line"/>
      <point x="539" y="216" type="line"/>
      <point x="539" y="0" type="line"/>
      <point x="283" y="0" type="line"/>
      <point x="262" y="216" type="line"/>
      <point x="205" y="216" type="line"/>
      <point x="205" y="0" type="line"/>
      <point x="73" y="0" type="line"/>
      <point x="73" y="216" type="line"/>
      <point x="13" y="216" type="line"/>
      <point x="13" y="330" type="line"/>
      <point x="73" y="330" type="line"/>
      <point x="73" y="366" type="line"/>
      <point x="13" y="366" type="line"/>
      <point x="13" y="480" type="line"/>
      <point x="73" y="480" type="line"/>
      <point x="73" y="700" type="line"/>
      <point x="329" y="700" type="line"/>
    </contour>
    <contour>
      <point x="205" y="480" type="line"/>
      <point x="237" y="480" type="line"/>
      <point x="223" y="634" type="line"/>
      <point x="205" y="634" type="line"/>
    </contour>
    <contour>
      <point x="407" y="66" type="line"/>
      <point x="407" y="216" type="line"/>
      <point x="375" y="216" type="line"/>
      <point x="389" y="66" type="line"/>
    </contour>
    <contour>
      <point x="205" y="330" type="line"/>
      <point x="252" y="330" type="line"/>
      <point x="248" y="366" type="line"/>
      <point x="205" y="366" type="line"/>
    </contour>
    <contour>
      <point x="364" y="330" type="line"/>
      <point x="407" y="330" type="line"/>
      <point x="407" y="366" type="line"/>
      <point x="360" y="366" type="line"/>
    </contour>
  </outline>
</glyph>
<glyph name="uni20AB.cap" format="1">
  <advance width="612"/>
  <outline>
    <contour>
      <point x="414" y="72" type="line"/>
      <point x="396" y="72" type="line"/>
      <point x="388" y="55"/>
      <point x="365" y="24"/>
      <point x="328" y="0"/>
      <point x="277" y="-14"/>
      <point x="241" y="-14" type="qcurve"/>
      <point x="195" y="-14"/>
      <point x="116" y="19"/>
      <point x="57" y="84"/>
      <point x="24" y="178"/>
      <point x="24" y="239" type="qcurve"/>
      <point x="24" y="257" type="line"/>
      <point x="24" y="317"/>
      <point x="59" y="411"/>
      <point x="120" y="476"/>
      <point x="201" y="510"/>
      <point x="246" y="510" type="qcurve"/>
      <point x="306" y="510"/>
      <point x="376" y="465"/>
      <point x="396" y="424" type="qcurve"/>
      <point x="414" y="424" type="line"/>
      <point x="414" y="538" type="line"/>
      <point x="258" y="538" type="line"/>
      <point x="258" y="652" type="line"/>
      <point x="414" y="652" type="line"/>
      <point x="414" y="700" type="line"/>
      <point x="540" y="700" type="line"/>
      <point x="540" y="652" type="line"/>
      <point x="600" y="652" type="line"/>
      <point x="600" y="538" type="line"/>
      <point x="540" y="538" type="line"/>
      <point x="540" y="0" type="line"/>
      <point x="414" y="0" type="line"/>
    </contour>
    <contour>
      <point x="282" y="106" type="qcurve"/>
      <point x="341" y="106"/>
      <point x="414" y="181"/>
      <point x="414" y="242" type="qcurve"/>
      <point x="414" y="254" type="line"/>
      <point x="414" y="315"/>
      <point x="341" y="390"/>
      <point x="282" y="390" type="qcurve"/>
      <point x="223" y="390"/>
      <point x="150" y="317"/>
      <point x="150" y="254" type="qcurve"/>
      <point x="150" y="242" type="line"/>
      <point x="150" y="179"/>
      <point x="223" y="106"/>
    </contour>
    <contour>
      <point x="540" y="-164" type="line"/>
      <point x="150" y="-164" type="line"/>
      <point x="150" y="-50" type="line"/>
      <point x="540" y="-50" type="line"/>
    </contour>
  </outline>
</glyph>
<glyph name="uni20B5.cap" format="1">
  <advance width="612"/>
  <outline>
    <contour>
      <point x="366" y="709" type="line"/>
      <point x="463" y="693"/>
      <point x="564" y="560"/>
      <point x="564" y="454" type="qcurve"/>
      <point x="564" y="436" type="line"/>
      <point x="432" y="436" type="line"/>
      <point x="432" y="454" type="line"/>
      <point x="432" y="473"/>
      <point x="425" y="511"/>
      <point x="410" y="545"/>
      <point x="385" y="573"/>
      <point x="366" y="582" type="qcurve"/>
      <point x="366" y="115" type="line"/>
      <point x="406" y="132"/>
      <point x="432" y="204"/>
      <point x="432" y="246" type="qcurve"/>
      <point x="432" y="264" type="line"/>
      <point x="564" y="264" type="line"/>
      <point x="564" y="246" type="line"/>
      <point x="564" y="136"/>
      <point x="463" y="5"/>
      <point x="366" y="-9" type="qcurve"/>
      <point x="366" y="-92" type="line"/>
      <point x="252" y="-92" type="line"/>
      <point x="252" y="-9" type="line"/>
      <point x="156" y="7"/>
      <point x="48" y="149"/>
      <point x="48" y="272" type="qcurve"/>
      <point x="48" y="428" type="line"/>
      <point x="48" y="547"/>
      <point x="156" y="692"/>
      <point x="252" y="709" type="qcurve"/>
      <point x="252" y="792" type="line"/>
      <point x="366" y="792" type="line"/>
    </contour>
    <contour>
      <point x="180" y="262" type="line"/>
      <point x="180" y="209"/>
      <point x="213" y="132"/>
      <point x="252" y="116" type="qcurve"/>
      <point x="252" y="582" type="line"/>
      <point x="215" y="564"/>
      <point x="180" y="486"/>
      <point x="180" y="438" type="qcurve"/>
    </contour>
  </outline>
</glyph>
<glyph name="uni20B9.cap" format="1">
  <advance width="612"/>
  <outline>
    <contour>
      <point x="572" y="431" type="line"/>
      <point x="496" y="431" type="line"/>
      <point x="478" y="372"/>
      <point x="412" y="345" type="qcurve"/>
      <point x="412" y="327" type="line"/>
      <point x="448" y="323"/>
      <point x="488" y="277"/>
      <point x="488" y="242" type="qcurve"/>
      <point x="488" y="0" type="line"/>
      <point x="356" y="0" type="line"/>
      <point x="356" y="210" type="line"/>
      <point x="356" y="234"/>
      <point x="331" y="264"/>
      <point x="302" y="264" type="qcurve"/>
      <point x="48" y="264" type="line"/>
      <point x="48" y="390" type="line"/>
      <point x="278" y="390" type="line"/>
      <point x="337" y="390"/>
      <point x="361" y="431" type="qcurve"/>
      <point x="48" y="431" type="line"/>
      <point x="48" y="545" type="line"/>
      <point x="359" y="545" type="line"/>
      <point x="348" y="564"/>
      <point x="307" y="586"/>
      <point x="278" y="586" type="qcurve"/>
      <point x="48" y="586" type="line"/>
      <point x="48" y="700" type="line"/>
      <point x="572" y="700" type="line"/>
      <point x="572" y="586" type="line"/>
      <point x="482" y="586" type="line"/>
      <point x="482" y="580" type="line"/>
      <point x="490" y="572"/>
      <point x="498" y="553"/>
      <point x="500" y="545" type="qcurve"/>
      <point x="572" y="545" type="line"/>
    </contour>
  </outline>
</glyph>
<glyph name="yen.cap" format="1">
  <advance width="612"/>
  <outline>
    <contour>
      <point x="72" y="354" type="line"/>
      <point x="158" y="354" type="line"/>
      <point x="12" y="700" type="line"/>
      <point x="152" y="700" type="line"/>
      <point x="297" y="354" type="line"/>
      <point x="315" y="354" type="line"/>
      <point x="460" y="700" type="line"/>
      <point x="600" y="700" type="line"/>
      <point x="454" y="354" type="line"/>
      <point x="540" y="354" type="line"/>
      <point x="540" y="240" type="line"/>
      <point x="369" y="240" type="line"/>
      <point x="369" y="204" type="line"/>
      <point x="540" y="204" type="line"/>
      <point x="540" y="90" type="line"/>
      <point x="369" y="90" type="line"/>
      <point x="369" y="0" type="line"/>
      <point x="243" y="0" type="line"/>
      <point x="243" y="90" type="line"/>
      <point x="72" y="90" type="line"/>
      <point x="72" y="204" type="line"/>
      <point x="243" y="204" type="line"/>
      <point x="243" y="240" type="line"/>
      <point x="72" y="240" type="line"/>
    </contour>
  </outline>
</glyph>
<glyph name="zero.tosn" format="1">
  <advance width="612"/>
  <outline>
    <contour>
      <point x="234" y="248" type="qcurve"/>
      <point x="234" y="277"/>
      <point x="277" y="320"/>
      <point x="306" y="320" type="qcurve"/>
      <point x="335" y="320"/>
      <point x="378" y="277"/>
      <point x="378" y="248" type="qcurve"/>
      <point x="378" y="219"/>
      <point x="335" y="176"/>
      <point x="306" y="176" type="qcurve"/>
      <point x="277" y="176"/>
      <point x="234" y="219"/>
    </contour>
    <contour>
      <point x="564" y="242" type="line"/>
      <point x="564" y="180"/>
      <point x="522" y="85"/>
      <point x="450" y="20"/>
      <point x="357" y="-14"/>
      <point x="306" y="-14" type="qcurve"/>
      <point x="255" y="-14"/>
      <point x="162" y="20"/>
      <point x="90" y="85"/>
      <point x="48" y="180"/>
      <point x="48" y="242" type="qcurve"/>
      <point x="48" y="254" type="line"/>
      <point x="48" y="315"/>
      <point x="90" y="410"/>
      <point x="162" y="476"/>
      <point x="255" y="510"/>
      <point x="306" y="510" type="qcurve"/>
      <point x="357" y="510"/>
      <point x="450" y="476"/>
      <point x="522" y="410"/>
      <point x="564" y="315"/>
      <point x="564" y="254" type="qcurve"/>
    </contour>
    <contour>
      <point x="306" y="112" type="qcurve"/>
      <point x="360" y="112"/>
      <point x="432" y="182"/>
      <point x="432" y="242" type="qcurve"/>
      <point x="432" y="254" type="line"/>
      <point x="432" y="314"/>
      <point x="360" y="384"/>
      <point x="306" y="384" type="qcurve"/>
      <point x="252" y="384"/>
      <point x="180" y="314"/>
      <point x="180" y="254" type="qcurve"/>
      <point x="180" y="242" type="line"/>
      <point x="180" y="182"/>
      <point x="252" y="112"/>
    </contour>
  </outline>
</glyph>
